
<svg width="36px" height="36px" viewBox="-8 -10 36 36" version="1.1" xmlns="http://www.w3.org/2000/svg" xmlns:xlink="http://www.w3.org/1999/xlink">
  <!-- Generator: Sketch 42 (36781) - http://www.bohemiancoding.com/sketch -->
  <desc>Created with Sketch.</desc>
  <defs></defs>
  <g id="providers-icon" stroke="none" stroke-width="1" fill="none" fill-rule="evenodd" transform="translate(-8.000000, -10.000000)">
    <circle id="Oval" fill="#FFFFFF" cx="18" cy="18" r="18"></circle>
    <path d="M8,14 L28,14 L28,10 L8,10 L8,14 Z M10,13 L12,13 L12,11 L10,11 L10,13 Z M8,20 L28,20 L28,16 L8,16 L8,20 Z M10,19 L12,19 L12,17 L10,17 L10,19 Z M8,26 L28,26 L28,22 L8,22 L8,26 Z M10,25 L12,25 L12,23 L10,23 L10,25 Z" id="Shape" fill="#2D4754"></path>
  </g>
</svg>
