<?xml version="1.0" encoding="UTF-8"?>
<svg width="720" height="283" version="1.1" viewBox="0 0 720 283" xmlns="http://www.w3.org/2000/svg"><path d="m521.6 209.8h25.8c-19.4 21.9-41 38.7-59.1 38.7-11 0-21-6.1-27.1-11.3l-15.8 20c10.3 11.3 24.8 20.3 44.2 20.3 71 0 146.5-121.3 146.5-176.8 0-21.9-10.3-33.9-31.3-33.9-18.1 0-32.9 9-40.7 15.5l10.6 21c4.8-3.2 11.6-6.8 18.1-6.8 5.8 0 8.1 3.2 8.1 10.6 0 20.7-20 61-45.8 93.3l-16.5-130h-48.4l-5.2 28.1h21zm-144.9 0h29.7c40-40.7 71-82.9 71-114.2 0-13.2-5.8-28.7-28.1-28.7-15.8 0-31 7.7-40.3 14.5l10.3 21c5.2-3.2 12.9-6.5 18.1-6.5 4.2 0 5.5 1.9 5.5 5.5 0 20.3-22.3 50.7-42.9 73.9l-19.7-104.9h-45.5l-5.2 27.8h21zm-141-23.9c-18.4 0-28.7-13.6-28.7-36.8 0-30 17.4-54.9 42.3-54.9 18.4 0 28.7 13.6 28.7 36.8 0 30-17.4 54.9-42.3 54.9m-12.9 27.4c19.4 0 35.5-9 47.4-22.9 2.3 13.2 11 22.9 32.3 22.9 8.4 0 16.8-1.6 22.9-3.2l4.5-26.8c-4.5 1.6-9.7 2.6-14.2 2.6-9 0-12.9-3.9-11-14.8l18.1-100.7h-36.5l-3.2 17.4c-8.4-12.6-21.9-21-41.3-21-39 0-72.3 32.9-72.3 82.9 0.1 42 23.6 63.6 53.3 63.6m-142.9 0.3c51.6 0 79.7-21 79.7-59.7 0-70.7-93.6-51-93.6-89.1 0-14.1 12.9-25.8 40.6-25.8 9 0 20 1.3 28.4 3.5l-4.8 26.1h34.2l8.4-48.1c-17.4-5.5-43.2-11.3-67.4-11.3-50.7 0-77.1 25.8-77.1 60 0 64.5 93.9 45.5 93.9 87.1 0 16.5-14.8 27.4-43.2 27.4-12.9 0-25.2-2.3-35.2-4.8l4.8-25.8h-33.6l-8.7 49c19 6.4 47.7 11.5 73.6 11.5" fill="#1d1d1b"/><path d="m687.5 213c12.3 0 22.3-10 22.3-22.3s-10-22.3-22.3-22.3-22.3 10-22.3 22.3 10 22.3 22.3 22.3" fill="#7adec6"/></svg>
