<?xml version="1.0" encoding="utf-8"?>
<!-- Generator: Adobe Illustrator 20.1.0, SVG Export Plug-In . SVG Version: 6.00 Build 0)  -->
<svg version="1.1" id="Layer_1" xmlns="http://www.w3.org/2000/svg" xmlns:xlink="http://www.w3.org/1999/xlink" x="0px" y="0px"
	 viewBox="0 0 240.3 270.8" style="enable-background:new 0 0 240.3 270.8;" xml:space="preserve">
<style type="text/css">
	.st0{fill:#010202;}
</style>
<g>
	<path class="st0" d="M142.6,57c0,8.9-7.2,16.1-16.1,16.1h-15.2L99.7,84.7V73.1h-1.2c-8.9,0-16.1-7.2-16.1-16.1v-11
		c0-8.9,7.2-16.1,16.1-16.1h27.9c8.9,0,16.1,7.2,16.1,16.1V57z M112.6,143.8c-11.1,0-20.1-9-20.1-20.1c0-11.1,9-20.1,20.1-20.1
		c11.1,0,20.1,9,20.1,20.1C132.7,134.7,123.7,143.8,112.6,143.8 M166.8,84.7v-0.5c13.9-5.7,24.8-20.9,24.8-36.2
		c0-15.5-8.3-29.7-21.9-37c-13.4-7.2-34-8-49-8H25.8v21.2l5.9,1c16.5,2.8,15,10.3,15,24.3v83c0,20.4-0.3,22-20.9,25.3v21.2h52.3
		v-10.5c0-7.5,6.1-13.7,13.6-13.7h41.5c7.5,0,13.6,6.1,13.6,13.7v10c11-0.9,21.7-3.3,31.3-9.8c13.9-9.3,21.1-25.1,21.1-41.6
		C199.3,106.7,186.4,90.1,166.8,84.7"/>
	<path class="st0" d="M213.3,179.1c-7.7,0-14-6.3-14-14c0-7.7,6.3-14,14-14c7.7,0,14,6.3,14,14C227.3,172.8,221,179.1,213.3,179.1"
		/>
	<g>
		<path class="st0" d="M239.7,242.9L239.7,242.9c-0.4-0.6-1.1-0.9-2-1l-0.3,0l-0.2,0.2c-1.3,1.7-2.8,3.6-4.6,5.6
			c-1.8,2-3.6,3.9-5.5,5.6c-1.9,1.7-3.8,3.2-5.7,4.4c-1.8,1.2-3.5,1.9-4.9,2.1c-0.7-0.1-1.3-0.7-1.7-1.6c-0.5-1.1-1-2.2-1.3-3.1
			c-0.1-0.9-0.2-1.5-0.2-1.9v-1.7c0-3.2,0.5-6.7,1.5-10.7c1-4,2.2-8,3.7-12.1c1.5-4.1,3.1-8.1,4.8-12c1.7-3.9,3.4-7.4,4.8-10.5
			c1.5-3.1,2.7-5.6,3.7-7.5c1.5-3,1.5-3.1,1.5-3.3c0-0.6-0.3-1.1-0.7-1.7c-0.5-0.5-1-1-1.7-1.4c-0.7-0.4-1.4-0.7-2.1-1
			c-0.7-0.2-1.4-0.4-1.9-0.4c-1.1,0-2.1,0.7-2.9,2.1c-0.8,1.3-1.5,2.7-2.1,4.3c-0.6,1.6-1,3-1.4,4.3c-0.3,1.3-0.4,1.8-0.5,2
			c-0.7,1.3-1.3,2.6-1.7,3.9c-0.4,1.3-0.9,2.5-1.2,3.3c-0.5,1.1-0.9,2.2-1.4,3.3l-1.3,3.5c-0.4,1.1-0.9,2.2-1.3,3.2
			c-0.3,0.7-0.7,1.4-1,2c-1.2-1.1-2.2-1.8-3.1-2.1c-1-0.4-2.3-0.6-3.8-0.6c-1.2,0-2.3,0.1-3.4,0.3c-1.2,0.2-2.4,0.8-3.7,1.7
			c-0.8,0.5-1.9,1.5-3.3,2.9c-1.4,1.4-3,3-4.7,4.9c-1.7,1.8-3.4,3.9-5.2,6.1c-1.8,2.2-3.4,4.4-4.8,6.6c-1.4,2.2-2.7,4.4-3.6,6.5
			c-1,2.1-1.4,4-1.4,5.7c0,1.2,0.3,2.4,1,3.7c0.7,1.3,1.5,2.5,2.5,3.6c1,1.1,2.2,2,3.5,2.7c3,1.6,6,1.4,9.2-0.8
			c1.8-1.2,3.5-2.6,5.2-4.3c1.7-1.6,3.3-3.4,4.7-5.1c1.1-1.3,2-2.5,2.9-3.4c0,0.5,0.1,0.9,0.2,1.2c0.1,0.7,0.3,1.3,0.6,1.9
			c0.2,0.6,0.5,1.1,0.8,1.7c0.3,0.5,0.6,1.3,0.9,2.1c0.1,0.2,0.2,0.5,1.2,1.8c0.7,0.9,1.5,1.9,2.4,2.9c0.9,1,1.9,1.9,3,2.7
			c1.1,0.9,2.1,1.3,3.1,1.3h2.4c1.3,0,2.5-0.2,3.6-0.7c1.1-0.5,2.1-1,3.1-1.7c0.9-0.6,1.7-1.3,2.4-1.9c0.7-0.6,1.3-1.1,1.7-1.4
			c0.3-0.2,0.7-0.5,1.3-0.8c0.7-0.3,1.1-0.7,1.3-1c0.3-0.5,0.6-1.2,0.9-2c0.2-0.7,0.4-1.3,0.5-1.8c0.1-0.3,0.3-0.5,0.8-0.7
			c0.7-0.3,1.2-0.6,1.5-1c0.6-1.1,1.2-2.1,1.8-2.9l1.4-2.2c0.4-0.7,0.8-1.3,1-1.9c0.2-0.6,0.4-1.3,0.4-2.1
			C240.3,244,240.1,243.5,239.7,242.9z M184,258.7c-0.2-0.3-0.3-0.8-0.3-1.3c0-1.5,0.4-3.2,1.2-5c0.8-1.9,1.9-3.9,3.3-5.9
			c1.4-2,2.9-4.1,4.6-6.1c1.7-2,3.4-3.9,5.1-5.6c1.7-1.7,3.4-3.1,4.9-4.3c1.5-1.2,2.8-2,3.8-2.4h0.7c0.1,0.3,0.3,0.7,0.6,1.2
			c0.3,0.5,0.5,1,0.5,1.3c0,0.4-0.2,1.3-1.3,3.1c-0.9,1.5-2.1,3.3-3.5,5.2c-1.4,1.9-3.1,4-4.8,6.1c-1.8,2.1-3.6,4.2-5.3,6
			c-1.8,1.9-3.4,3.6-5,5c-1.5,1.4-2.7,2.3-3.7,2.8H184z"/>
		<path class="st0" d="M176.6,235.8c0.7-0.8,1.3-1.7,1.8-2.7c0.5-1,1-1.9,1.3-2.8c0.4-0.9,0.6-1.6,0.7-2.1c0.1-1.1-0.3-2.1-1-3
			c-0.7-0.9-1.5-1.6-2.5-2.3c-1-0.6-2-1.1-3.1-1.5c-1-0.3-1.9-0.5-2.6-0.6c-1.2-0.1-2.7,0.2-4.5,0.9c-1.7,0.7-3.5,1.6-5.3,2.6
			c-1.8,1.1-3.3,2.3-4.7,3.5c-0.3,0.3-0.6,0.6-0.9,0.9c0.1-0.2,0.1-0.3,0.2-0.5c0.3-0.7,0.6-1.3,0.9-1.9c0.4-0.9,0.5-1.2,0.5-1.4
			c0-0.3-0.2-0.7-0.6-1.3c-0.4-0.5-0.9-1-1.5-1.4c-0.6-0.5-1.3-0.9-1.9-1.2c-0.7-0.4-1.4-0.6-2.1-0.7c-0.5,0-1.1,0.3-1.6,1
			c-0.5,0.6-0.8,1.1-1,1.5c-0.6,2-1.4,4.2-2.2,6.8l-2.5,7.7c-0.9,2.6-1.7,5.2-2.5,7.7c0,0.1-0.1,0.2-0.1,0.2c-0.6,0.6-1.2,1.3-1.9,2
			c-1.4,1.4-2.9,2.9-4.6,4.5c-1.6,1.5-3.1,2.8-4.4,3.9c-0.5,0.4-1.1,0.8-1.7,1.2c-0.6,0.4-1.3,0.8-2,1.1c-0.7,0.3-1.3,0.6-1.8,0.8
			c-0.7,0.3-0.9,0.3-0.9,0.3h0c0,0-0.1-0.1-0.1-0.2l-0.2-0.5l-0.1-3.4c0-1.5,0.3-3.3,0.9-5.2c0.6-2,1.3-3.9,2.1-5.9
			c0.8-1.9,1.7-3.8,2.6-5.4c0.9-1.7,1.7-3.1,2.3-4.2c0.2-0.3,0.4-0.7,0.6-0.9c0.3-0.3,0.6-0.7,0.9-1.2c0.4-0.4,0.5-1,0.3-1.8
			c-0.1-0.2-0.1-0.5-0.2-0.8l-0.1-0.2c-0.6-0.8-1.4-1.3-2.3-1.4c-0.6,0-1.2-0.2-1.7-0.5c0.1-0.6,0-1.3-0.1-2
			c-0.2-0.8-0.4-1.4-0.6-1.9l-0.1-0.2c-0.1-0.1-0.3-0.3-1.2-0.9c-0.6-0.4-1.3-0.8-2-1.3c-0.7-0.4-1.4-0.8-2.1-1.1
			c-1-0.5-1.3-0.5-1.5-0.5c-0.9,0-1.8,0.1-2.5,0.4c-0.7,0.2-1.3,0.5-1.8,0.9c-0.5,0.3-0.9,0.7-1.3,1c-0.3,0.3-0.7,0.6-1,0.8
			c-0.5,0.3-1.2,0.8-1.9,1.4c-0.7,0.6-1.3,1-1.8,1.3l-0.4,0.3l0.3,0.4c0,0.1,0,0.2,0,0.3c0,0.1,0,0.1-0.1,0.2
			c-0.2-0.1-0.4-0.1-0.7-0.1c-0.3,0-0.7,0.2-1.6,1.1c-0.7,0.6-1.5,1.5-2.4,2.5c-0.9,1-1.9,2.1-2.9,3.3c-1.1,1.2-2.1,2.4-3,3.6
			c-1,1.2-1.8,2.3-2.6,3.2c-0.8,1-1.3,1.7-1.7,2.2c-1.2,1.9-2.3,3.8-3.1,5.7c-1.2,0.8-2.5,1.7-3.9,2.7c-1.8,1.2-3.7,2.4-5.8,3.6
			c-2.1,1.2-4.2,2.4-6.2,3.3c-2,1-3.9,1.8-5.7,2.4c-1.7,0.6-3.1,0.9-4.2,0.9c-1.1,0-2.1-0.2-2.8-0.6c-0.8-0.4-1.4-1-1.9-1.7
			c-0.5-0.7-0.9-1.5-1.1-2.4c-0.2-0.9-0.3-1.8-0.3-2.7c0-0.2,0-0.5,0-1c0-0.5,0.1-1,0.2-1.5c0.1-0.6,0.2-1.1,0.4-1.7
			c0.1-0.3,0.2-0.5,0.2-0.8c0.8,0.6,1.6,1.2,2.4,1.7c1.1,0.7,2,1,2.7,1c0.5,0,1.2-0.3,2.1-1c0.8-0.6,1.8-1.4,2.9-2.3
			c1.1-0.9,2.2-1.9,3.3-3c1.1-1.1,2.2-2.2,3.2-3.2c1-1,1.8-1.9,2.6-2.7c0.7-0.8,1.2-1.4,1.4-1.7c0.4-0.8,0.9-1.6,1.5-2.5
			c0.6-0.9,1.1-1.9,1.6-2.9c0.5-1,1-2.1,1.3-3.2c0.4-1.1,0.6-2.3,0.6-3.4c0-0.6-0.2-1.2-0.8-2c-0.5-0.7-1.1-1.4-1.8-2.1
			c-0.7-0.7-1.5-1.2-2.3-1.7c-0.9-0.5-1.6-0.7-2.3-0.7c-0.4,0-0.7,0.1-0.8,0.2c-0.1,0.1-0.2,0.3-0.2,0.4c0,0-0.1,0-0.1,0
			c-0.2,0-0.5-0.1-0.7-0.4c-0.4-0.5-0.9-0.7-1.5-0.7c-1.7,0-3.6,0.6-5.5,1.7c-1.9,1.1-3.7,2.6-5.5,4.4c-1.8,1.8-3.5,3.9-5.1,6.2
			c-1.6,2.3-3.1,4.7-4.3,7.2c-1.3,2.5-2.3,4.9-3,7.3c-0.3,0.9-0.5,1.8-0.7,2.6c-0.5,0.5-1,1-1.5,1.6c-1.3,1.4-2.7,2.8-4.2,4.2
			c-1.5,1.4-2.9,2.7-4.2,3.7c-1.4,0.7-2.7,1.5-3.8,2.2c-1,0.6-1.8,1.1-2.6,1.4c-0.9-2.1-1.4-4-1.4-5.7c0-0.1,0-0.4,0.2-1.9
			c0.2-1.1,0.4-2.3,0.6-3.8c0.3-1.4,0.5-3,0.9-4.6c0.3-1.6,0.7-3,1-4.2c0.4-1.2,0.9-2.6,1.4-4.2c0.6-1.6,1.1-3.1,1.7-4.6l1.4-3.7
			c0.5-1.4,0.6-1.8,0.6-2c0-0.6-0.3-1.2-0.8-2c-0.5-0.7-1.1-1.4-1.8-2.1c-0.7-0.6-1.4-1.2-2.1-1.6c-0.8-0.5-1.4-0.7-1.9-0.7
			c-0.6,0-1.3,0.3-2.3,0.9c-0.9,0.6-2,1.3-3.1,2.2c-1.1,0.9-2.3,1.9-3.4,2.9c-1.2,1.1-2.3,2.1-3.3,3c-1,0.9-1.8,1.7-2.5,2.4
			l-0.2,0.2l13.5-40.8l0-0.1c0.1-0.8-0.2-1.5-0.8-2.2c-0.5-0.6-1.2-1.1-1.9-1.6c-0.7-0.5-1.4-0.8-2-1.1c-0.9-0.4-1.2-0.4-1.4-0.4
			c-1.2,0-1.8,0.7-2,1.3c-0.3,0.7-0.4,1.5-0.5,2.3c0,0.8,0,1.6,0.2,2.4c0.1,0.7,0.2,1,0.2,1.2c-0.1,0.2-0.3,0.5-0.6,1
			c-0.4,0.6-0.7,1.3-1.1,2c-0.4,0.7-0.7,1.5-1,2.3c-0.3,0.8-0.5,1.5-0.5,2.1c0,0.6,0.2,0.9,0.4,1.1c-0.7,0.5-1.4,1.4-2,2.7
			c-0.7,1.5-1.5,3.3-2.1,5.3c-0.7,2-1.3,4.1-1.9,6.3c-0.6,2.2-1.2,4.2-1.9,6c-0.8,2.4-1.7,5.2-2.8,8.2c-0.6,1.6-1.7,4.4-3.1,7.4
			c-1.1,2.4-1.1,3.5-2.2,5.8c-1.3,2.8-4.2,9.4-5.1,11.4c-1.2,2.7-1.6,3.2-1.7,3.2l-0.2,0.1l0,0.2c-0.1,0.7,0.1,1.5,0.5,2.2
			c0.4,0.6,0.8,1.3,1.4,1.9c0.5,0.6,1.1,1.2,1.7,1.8c0.5,0.5,1,1,1.3,1.6l0.1,0.3h2.5l0.1-0.2c1.7-2.4,2.9-5.2,4.4-7.9
			c1.7-3,5.2-9,6.8-11.2l0.6-0.8h-0.8c0,0,0-0.1,0.1-0.1c0.1,0,0.2,0,0.3,0c0.2,0,0.5-0.1,1.6-1.2c0.4-0.4,1.3-1.6,2.5-2.9
			c1.1-1.4,2.4-3,2.9-3.4c0.9-0.9,1.8-1.7,2.7-2.5c0.6-0.5,1-0.8,1.4-1v0c-0.9,3.1-1.8,6.1-2.7,9.3c-0.9,3.2-1.4,6.4-1.4,9.7
			c0,1,0.2,2.3,0.5,3.9c0.3,1.6,0.9,3.3,1.7,4.8c0.8,1.6,2,3,3.3,4.1c1.4,1.2,3.2,1.8,5.3,1.8c2.1,0,4.1-0.6,5.8-1.7
			c1.7-1.1,3.5-3,5.5-5.6c0.1-0.1,0.3-0.3,1-0.6c0.2-0.1,0.5-0.2,0.7-0.2l0.2-0.1c0.9-0.6,1.7-1.4,2.5-2.4c0.3,0.7,0.6,1.3,1,2
			c0.8,1.3,1.8,2.7,3.1,3.9c1.3,1.3,3,2.3,4.9,2.9c2,0.7,4.3,1,6.9,1c2.6,0,5.7-0.6,9.3-1.7c0.8-0.4,1.5-0.9,2-1.6
			c0.5-0.8,0.8-0.9,1-1c0.5-0.3,1.2-0.5,2-0.6c0.9-0.1,1.7-0.4,2.2-0.7c1.1-0.6,2-1.3,2.7-2c0.6-0.6,1.4-1.2,2.2-1.7l0.4-0.2l0-0.1
			c0.2,0.4,0.5,0.8,0.8,1.3c0.7,0.9,1.5,1.7,2.4,2.6c0.9,0.8,1.8,1.5,2.7,2.1c1,0.6,1.8,0.9,2.4,0.9c1.4,0,2.9-0.4,4.5-1.2
			c1.6-0.8,3.1-1.7,4.6-2.8c1.5-1.1,2.9-2.2,4.3-3.3c1-0.8,1.8-1.6,2.6-2.2c0,0.3,0.1,0.7,0.2,1.1c0.1,0.9,0.4,1.9,0.7,2.9
			c0.4,1,0.9,2,1.5,3c0.6,1,1.5,1.8,2.5,2.4c0.2,0.1,0.6,0.4,1,0.1c0.1-0.1,0.1-0.2,0.2-0.4c0.3,0.1,0.6,0.4,0.8,0.7
			c0.5,0.7,1,1.3,1.6,1.7l0.3,0.2v1l1.2-1.2c0.2,0.1,0.5,0.1,0.8,0.1c0.6,0,1-0.3,1.2-0.9c0-0.1,0-0.1,0.3-0.1c0,0,0,0,0.1,0l0,0
			c0.2,0.3,0.6,0.4,1,0.4c0.6,0,1.1-0.3,1.5-0.9c0.1-0.2,0.2-0.3,0.4-0.3l0.6,0.1v-0.6c0-0.2,0-0.4-0.1-0.6c0.2,0.1,0.5,0.1,0.7,0.1
			c0.7,0,1.6-0.5,2.8-1.7c0.8-0.8,1.7-1.6,2.6-2.6c0.1,0.3,0.3,0.7,0.6,1.1c0.4,0.6,0.9,1.1,1.5,1.7c0.6,0.6,1.2,1.1,1.8,1.5
			c0.7,0.5,1.2,0.7,1.8,0.8c0.6,0,1.1-0.1,1.5-0.2c0.6-0.2,1-0.7,1.3-1.6c0.3-0.8,0.6-1.9,1.1-3.4c0.5-1.5,1-3,1.6-4.6
			c0.6-1.6,1.1-3.2,1.6-4.6c0.5-1.4,0.9-2.4,1.2-3.1c1.5-3,2.8-5.4,4.1-7.1c1.3-1.7,2.7-3.4,4.2-5.1c1.5-1.7,3.2-3.1,4.9-4.2
			c1.8-1.1,3.8-1.9,6-2.4h0.7c0.1,0.1,0.2,0.1,0.2,0.2c0,0,0,0.1,0,0.5c0,0,0,0.3-0.3,1.2c-0.2,0.7-0.5,1.5-0.7,2.3
			c-0.2,0.8-0.4,1.5-0.7,2.1c-0.2,0.6-0.4,1.1-0.4,1.3l0,0.2c0,0.5,0,0.9,0.1,1.1c0.1,0.4,0.4,0.6,1,0.8c0.7,0.1,1.6,0.1,2.7-0.1
			c0.5-0.1,1.1-0.2,1.7-0.3l0.1,0C175.3,237.1,175.9,236.6,176.6,235.8z M123.4,230.2c0,0.4-0.2,1.3-1,2.9c-0.7,1.4-1.5,2.7-2.4,4.1
			c-0.9,1.4-1.8,2.6-2.6,3.8c-1.1,1.5-1.4,1.9-1.5,2c-1.6,2.1-3.4,4.2-5.5,6.1c-2.1,1.9-3.9,3.4-5.3,4.5c-1.4,1-3.2,2.3-5.3,3.6
			h-1.3c0-0.1,0-0.2,0-0.4c0-1.3,0.5-3,1.5-4.9c1-2,2.3-4,3.9-6.1c1.6-2.1,3.4-4.3,5.3-6.4c2-2.1,3.9-4.1,5.7-5.7
			c1.8-1.7,3.5-3,4.9-4c1.5-1,2.4-1.4,2.8-1.4C123.1,229,123.4,229.7,123.4,230.2z M63.9,242.8c0,0,0-0.1,0-0.1
			c0.2-0.5,0.4-1,0.8-1.6c0.2-0.6,0.6-1.3,1-1.9c1-1.6,2.1-3.2,3.2-4.6c1.1-1.4,2.3-2.7,3.4-3.8c1.1-1.1,2.1-2,3.1-2.7
			c0.9-0.7,1.6-1.2,2.2-1.5h0.5c-0.3,1.2-1,2.5-2,4c-1.2,1.8-2.7,3.6-4.2,5.4c-1.6,1.7-3.2,3.3-4.9,4.7
			C65.8,241.5,64.8,242.3,63.9,242.8z"/>
	</g>
</g>
</svg>
