<?xml version="1.0" encoding="UTF-8"?>
<svg width="150px" height="150px" viewBox="0 0 150 150" version="1.1" xmlns="http://www.w3.org/2000/svg" xmlns:xlink="http://www.w3.org/1999/xlink">
    <!-- Generator: Sketch 43.2 (39069) - http://www.bohemiancoding.com/sketch -->
    <title>insurance</title>
    <desc>Created with Sketch.</desc>
    <defs></defs>
    <g id="Page-1" stroke="none" stroke-width="1" fill="none" fill-rule="evenodd">
        <g id="insurance" fill-rule="nonzero" fill="#14223E">
            <g id="umbrella-icon" transform="translate(25.000000, 27.000000)">
                <path d="M50.0237079,0 C22.380275,0 0,22.380275 0,50.0237079 L0.0474158,50.0237079 C0.2370792,45.0924609 7.6339497,41.1095306 16.7377904,41.1095306 C25.6519678,41.1095306 32.859175,44.9027975 33.3807492,49.6917971 C33.8549075,45.3295401 39.8767188,41.8207681 47.6529161,41.2043623 L47.6529161,80.7965861 C47.6529161,85.1593172 49.0753912,88.8572783 51.730678,91.4651494 C54.1014699,93.7885254 57.3257468,95.116643 60.7396871,95.116643 C67.2356567,95.116643 73.826458,90.1849218 73.826458,80.7965861 C73.826458,79.9435752 73.1152205,79.2323376 72.2617354,79.2323376 C71.4082504,79.2323376 70.6970128,79.9435752 70.6970128,80.7965861 C70.6970128,88.5253675 65.5286866,92.0346136 60.7396871,92.0346136 C55.9506875,92.0346136 50.7823613,88.5253675 50.7823613,80.7965861 L50.7823613,41.1095306 C59.5542911,41.2991939 66.571835,45.1872926 66.7614983,49.9762921 L66.85633,49.9762921 C67.0459934,45.045045 74.4428639,41.0621147 83.5467046,41.0621147 C91.891892,41.0621147 98.719772,44.3812233 100,48.6960645 C99.288762,21.7164533 77.1929825,0 50.0237079,0" id="Fill-5"></path>
            </g>
        </g>
    </g>
</svg>