<?xml version="1.0" encoding="UTF-8"?>
<svg width="150px" height="150px" viewBox="0 0 150 150" version="1.1" xmlns="http://www.w3.org/2000/svg" xmlns:xlink="http://www.w3.org/1999/xlink">
    <!-- Generator: Sketch 43.2 (39069) - http://www.bohemiancoding.com/sketch -->
    <title>phone-internet</title>
    <desc>Created with Sketch.</desc>
    <defs></defs>
    <g id="Page-1" stroke="none" stroke-width="1" fill="none" fill-rule="evenodd">
        <g id="phone-internet" fill-rule="nonzero" fill="#14223E">
            <g id="phone-icon" transform="translate(48.000000, 29.000000)">
                <g id="Group-2">
                    <path d="M5.97637795,0 C3.94094488,0 0,2.5984252 0,6.32283465 L0,86.6141732 C0,88.6496063 2.20866142,92.0126953 5.97637795,92.0126953 L49.1535433,92.0126953 C51.1889764,92.0126953 54.9566929,90.3385827 54.9566929,86.6141732 L54.9566929,6.32283465 C54.9566929,4.28740157 52.9212598,0 49.1535433,0 L5.97637795,0 Z M23.7755906,84.8385827 C23.7755906,82.7165354 25.507874,80.984252 27.6299213,80.984252 C29.7519685,80.984252 31.484252,82.7165354 31.484252,84.8385827 C31.484252,86.9606299 29.7519685,88.6929134 27.6299213,88.6929134 C25.507874,88.6929134 23.7755906,86.9606299 23.7755906,84.8385827 Z M3.02392578,78.0192261 L3.02392578,10.0089722 L52.048645,9.94238281 L52.048645,78.0192261 L3.02392578,78.0192261 Z" id="Fill-7"></path>
                    <path d="M28.4094488,53.2677165 C26.5905512,53.2677165 25.1181102,54.7397244 25.1181102,56.5590551 C25.1181102,58.3779528 26.5905512,59.8503937 28.4094488,59.8503937 C30.2283465,59.8503937 31.7012205,58.3779528 31.7012205,56.5590551 C31.7012205,54.7397244 30.2283465,53.2677165 28.4094488,53.2677165" id="Fill-9"></path>
                    <path d="M23.2125984,52.8349566 C26.0275591,49.9333818 31.0511811,49.9333818 33.8661417,52.7912165 L35.4251969,51.2754684 C31.7874016,47.5514921 25.3346457,47.5943661 21.6535433,51.3192086 L23.2125984,52.8349566 Z" id="Fill-11"></path>
                    <path d="M18.6220472,47.9409449 L20.1811024,49.4566929 C22.3897638,47.1614173 25.3346457,45.9055118 28.496063,45.9055118 C31.6574803,45.9055118 34.6019291,47.1614173 36.8110236,49.4133858 L38.3700787,47.8976378 C35.7716535,45.2125984 32.2637795,43.7401575 28.496063,43.7401575 C24.7716535,43.7401575 21.2637795,45.2559055 18.6220472,47.9409449" id="Fill-13"></path>
                    <path d="M14.2913386,44.1299213 L16.5,46.2519685 C19.6181102,43.003937 23.8188976,41.2283465 28.3224016,41.2283465 C32.7834646,41.2283465 36.9838189,43.003937 40.1023622,46.1653543 L42.3110236,44 C38.5866142,40.2322835 33.6496063,38.1102362 28.3661417,38.1102362 C22.996063,38.1968504 18.015748,40.3188976 14.2913386,44.1299213" id="Fill-15"></path>
                    <path d="M28.4527559,35.3818898 C34.4720079,35.3818898 40.0590551,37.7637795 44.2598425,42.0511811 L47.2913386,39.1062992 C42.2672835,33.996063 35.5984252,31.1811024 28.4527559,31.1811024 C21.2637795,31.1811024 14.507874,34.0393701 9.52755906,39.1929134 L12.5590551,42.1377953 C16.7598425,37.7637795 22.3897638,35.3818898 28.4527559,35.3818898" id="Fill-17"></path>
                </g>
            </g>
        </g>
    </g>
</svg>