<svg width="71" height="77" viewBox="0 0 71 77" xmlns="http://www.w3.org/2000/svg"><title>550F840A-F284-4C33-9F55-1E1AA42C612F</title><g fill="#000" fill-rule="evenodd"><path d="M41.69 15.596c0 2.576-2.122 4.664-4.74 4.664h-4.472l-3.41 3.355V20.26h-.349c-2.618 0-4.74-2.088-4.74-4.664v-3.184c0-2.576 2.122-4.665 4.74-4.665h8.23c2.619 0 4.74 2.089 4.74 4.665v3.184zM32.872 40.68c-3.263 0-5.91-2.604-5.91-5.817s2.647-5.816 5.91-5.816c3.264 0 5.91 2.603 5.91 5.816 0 3.213-2.646 5.817-5.91 5.817zm15.964-17.068v-.15c4.101-1.644 7.29-6.052 7.29-10.46 0-4.484-2.43-8.593-6.454-10.686C45.725.224 39.649 0 35.245 0H7.302v6.126l1.746.3c4.86.822 4.404 2.99 4.404 7.023v23.985c0 5.904-.076 6.353-6.15 7.324v6.127h15.41V47.85c0-2.182 1.797-3.95 4.014-3.95h12.222c2.216 0 4.013 1.768 4.013 3.95v2.879c3.234-.262 6.382-.958 9.218-2.833 4.1-2.69 6.227-7.247 6.227-12.03 0-5.904-3.796-10.685-9.57-12.254zM62.524 50.885c-2.275 0-4.118-1.81-4.118-4.041 0-2.233 1.843-4.042 4.118-4.042 2.275 0 4.118 1.809 4.118 4.042 0 2.231-1.843 4.04-4.118 4.04M70.302 69.345c-.12-.164-.317-.259-.586-.28l-.08-.009-.048.064a24.002 24.002 0 0 1-1.35 1.615 20.907 20.907 0 0 1-1.63 1.614c-.558.492-1.124.922-1.68 1.278-.538.341-1.023.544-1.448.6-.207-.036-.374-.192-.508-.472a7.348 7.348 0 0 1-.37-.905 4.338 4.338 0 0 1-.055-.562v-.5c0-.911.145-1.951.434-3.091a35.246 35.246 0 0 1 1.086-3.5c.43-1.175.91-2.345 1.425-3.474.514-1.13.995-2.154 1.428-3.038.431-.885.797-1.614 1.087-2.162.455-.864.455-.903.455-.953 0-.163-.074-.332-.22-.497a2.09 2.09 0 0 0-.502-.403 3.222 3.222 0 0 0-.608-.277 1.893 1.893 0 0 0-.57-.103c-.316 0-.605.204-.858.607a7.032 7.032 0 0 0-.606 1.234c-.172.448-.308.866-.401 1.236-.096.374-.13.514-.141.572a6.95 6.95 0 0 0-.508 1.14c-.131.388-.253.71-.362.96-.136.304-.27.625-.399.95l-.396.999c-.13.327-.261.638-.394.923-.099.215-.192.411-.28.59-.351-.31-.65-.51-.91-.608-.29-.106-.663-.16-1.111-.16-.347 0-.69.027-1.017.083-.34.06-.711.226-1.102.494-.234.154-.564.436-.983.836-.417.4-.88.875-1.377 1.408a39.642 39.642 0 0 0-1.535 1.757c-.518.629-.996 1.272-1.423 1.914-.428.643-.783 1.27-1.058 1.865-.28.608-.423 1.16-.423 1.642 0 .334.1.697.298 1.077.194.371.446.72.746 1.033.301.314.646.576 1.026.777.894.472 1.77.4 2.725-.229a10.861 10.861 0 0 0 1.534-1.238c.495-.477.96-.975 1.384-1.484.322-.385.6-.712.845-.99a3.006 3.006 0 0 0 .211.9c.067.16.145.327.231.495.082.159.17.367.261.62.018.052.072.152.347.512.202.263.442.543.717.831.278.29.574.556.881.793.325.25.632.377.91.377h.706c.375 0 .736-.07 1.075-.206.328-.133.632-.297.906-.489.265-.185.508-.37.717-.548.205-.173.372-.305.505-.4.087-.067.212-.142.371-.22.203-.1.322-.194.37-.288.099-.155.185-.348.255-.574.066-.214.119-.386.157-.516.025-.084.101-.15.235-.198.214-.077.355-.174.432-.3.182-.326.357-.612.518-.852l.424-.638c.126-.19.225-.376.297-.555.071-.182.109-.388.109-.607a.793.793 0 0 0-.169-.47zm-16.423 4.55a.833.833 0 0 1-.076-.386c0-.424.118-.914.354-1.458.24-.553.566-1.129.964-1.713a22.602 22.602 0 0 1 2.855-3.38c.504-.485.99-.906 1.445-1.251.437-.334.812-.566 1.114-.693h.218c.028.095.085.205.17.336.098.153.148.282.148.383 0 .122-.066.377-.377.902-.262.44-.608.945-1.025 1.5-.422.56-.9 1.155-1.425 1.77a42.26 42.26 0 0 1-1.565 1.744 26.42 26.42 0 0 1-1.462 1.436c-.436.393-.802.665-1.085.81h-.253zM51.715 67.27c.204-.229.387-.49.542-.775.154-.285.286-.561.389-.821.107-.271.171-.463.193-.598.02-.313-.08-.608-.3-.875a3.212 3.212 0 0 0-.74-.654 3.695 3.695 0 0 0-.9-.42 4.088 4.088 0 0 0-.77-.172c-.36-.02-.808.071-1.334.272a9.961 9.961 0 0 0-2.945 1.777c-.1.087-.191.175-.275.262a15.876 15.876 0 0 1 .331-.691c.125-.247.142-.339.142-.396 0-.094-.056-.203-.187-.366a2.526 2.526 0 0 0-.435-.413 3.832 3.832 0 0 0-.573-.361 1.771 1.771 0 0 0-.619-.196c-.16 0-.317.095-.48.288-.143.17-.234.305-.28.42-.188.573-.405 1.226-.65 1.958l-.75 2.234c-.255.76-.5 1.506-.736 2.238l-.024.072a57.954 57.954 0 0 1-1.906 1.883c-.465.437-.9.817-1.289 1.126a6.933 6.933 0 0 1-1.093.652c-.196.092-.372.17-.53.234-.208.084-.265.087-.27.087h-.006a.332.332 0 0 1-.027-.07l-.05-.148-.028-.975c0-.447.087-.956.262-1.514a17.98 17.98 0 0 1 1.403-3.264c.274-.49.497-.894.669-1.213.05-.1.11-.188.177-.261.076-.085.175-.203.276-.34.111-.109.144-.283.095-.523a4.904 4.904 0 0 1-.056-.243l-.023-.056c-.177-.237-.402-.37-.672-.391a1.498 1.498 0 0 1-.505-.134c.022-.187.013-.38-.031-.575-.048-.22-.103-.4-.164-.539l-.03-.045a2.902 2.902 0 0 0-.347-.252 10.733 10.733 0 0 0-.587-.366 8.255 8.255 0 0 0-.62-.325c-.288-.134-.383-.153-.444-.153-.28 0-.523.036-.728.106-.2.068-.376.152-.526.25a3.538 3.538 0 0 0-.386.292 2.656 2.656 0 0 1-.305.235 4.74 4.74 0 0 0-.555.414 4.466 4.466 0 0 1-.52.391l-.125.076.081.122c.011.017-.004.056-.01.073l-.022.042a.581.581 0 0 0-.216-.03c-.087 0-.198.053-.481.318-.2.187-.436.428-.7.715-.266.288-.553.603-.864.945-.31.341-.61.689-.897 1.033-.283.342-.537.652-.764.931-.234.287-.393.5-.489.65a13.205 13.205 0 0 0-.923 1.635 39.057 39.057 0 0 1-2.878 1.833c-.617.358-1.232.683-1.83.967-.596.283-1.158.52-1.67.702-.5.18-.918.27-1.238.27-.333 0-.614-.061-.838-.178a1.6 1.6 0 0 1-.559-.486 1.97 1.97 0 0 1-.317-.687 3.304 3.304 0 0 1-.095-.786 4.752 4.752 0 0 1 .07-.726 4.284 4.284 0 0 1 .181-.708c.227.179.461.347.702.498.318.202.58.3.8.3.146 0 .343-.087.62-.275a9.8 9.8 0 0 0 .846-.662c.31-.266.636-.562.97-.88a44.58 44.58 0 0 0 1.688-1.7c.22-.236.351-.393.414-.496.131-.222.278-.462.437-.72.163-.262.322-.546.474-.843.153-.3.284-.615.39-.936.108-.329.163-.66.163-.988 0-.158-.074-.344-.224-.565a3.427 3.427 0 0 0-.515-.593 3.595 3.595 0 0 0-.663-.492c-.253-.144-.47-.214-.667-.214-.121 0-.195.02-.243.069a.244.244 0 0 0-.068.124c-.007.002-.017.002-.03.002-.071 0-.137-.036-.204-.107a.594.594 0 0 0-.445-.198c-.516 0-1.062.165-1.63.49-.556.321-1.104.75-1.63 1.274a13.823 13.823 0 0 0-1.5 1.796c-.472.668-.9 1.364-1.269 2.07-.37.71-.664 1.418-.873 2.108-.078.259-.143.51-.193.754l-.439.451c-.38.394-.795.804-1.228 1.218-.428.411-.851.777-1.238 1.073-.403.207-.783.425-1.13.646-.284.181-.542.318-.765.41-.274-.614-.413-1.17-.413-1.652 0-.022.006-.119.069-.534.047-.313.108-.678.183-1.094.076-.415.16-.853.254-1.316.094-.456.197-.862.308-1.206.114-.356.256-.765.422-1.217.17-.462.334-.901.495-1.317l.411-1.07c.156-.411.178-.52.178-.578 0-.159-.076-.349-.237-.578a3.331 3.331 0 0 0-.532-.595 4.704 4.704 0 0 0-.628-.473c-.237-.148-.414-.216-.557-.216-.164 0-.382.085-.685.27a8.498 8.498 0 0 0-.907.65 46.96 46.96 0 0 0-2.712 2.412l-.052.049 3.982-11.805.007-.03c.023-.225-.057-.439-.233-.636a2.922 2.922 0 0 0-.552-.468 3.644 3.644 0 0 0-.59-.317c-.261-.108-.353-.123-.41-.123-.362 0-.518.2-.586.367-.082.2-.128.425-.139.671-.009.24.005.474.046.697.033.19.047.297.051.358a2.855 2.855 0 0 0-.19.297c-.105.178-.214.374-.328.589-.116.216-.218.44-.305.668-.092.24-.136.44-.136.604 0 .164.047.256.108.307-.21.154-.403.406-.588.77-.218.428-.43.938-.63 1.518-.2.577-.391 1.193-.57 1.826a25.018 25.018 0 0 1-.55 1.73 57.113 57.113 0 0 1-.832 2.382 27.584 27.584 0 0 1-.903 2.125c-.323.68-.323 1.025-.634 1.673-.383.8-1.236 2.713-1.497 3.298-.352.791-.481.918-.512.94l-.058.035-.007.067c-.021.215.027.427.146.626.108.184.247.37.414.551.16.178.331.35.503.51.158.146.283.297.37.451l.04.073h.726l.043-.06c.49-.685.867-1.517 1.306-2.293.488-.86 1.527-2.594 2.01-3.233l.171-.225h-.239c.008-.008.014-.018.02-.027.034.003.07.005.102.005.074 0 .142-.025.485-.361.107-.106.396-.45.732-.85.338-.403.72-.859.855-.99.255-.25.523-.496.798-.728.172-.147.302-.237.399-.293v.012c-.263.882-.53 1.774-.802 2.674a9.7 9.7 0 0 0-.415 2.79c0 .287.048.67.143 1.138.097.475.269.945.51 1.398.243.46.575.861.984 1.196.42.344.947.519 1.564.519.63 0 1.203-.167 1.706-.496.492-.322 1.032-.865 1.606-1.616.023-.03.092-.093.289-.18a.838.838 0 0 1 .219-.07l.05-.021a3.09 3.09 0 0 0 .743-.7c.083.194.183.389.299.583.23.388.539.768.915 1.128.381.363.87.65 1.455.85.578.2 1.263.297 2.043.287.777-.011 1.689-.176 2.728-.499.25-.101.453-.258.601-.465.155-.22.244-.271.29-.29a1.79 1.79 0 0 1 .588-.18c.274-.038.497-.11.66-.21.31-.172.575-.362.78-.565a3.51 3.51 0 0 1 .638-.493l.105-.063-.01-.023c.054.115.133.238.24.372.203.256.437.503.695.738.258.235.526.443.798.612.29.184.52.273.7.273.419 0 .869-.117 1.339-.347.458-.225.915-.496 1.362-.802.447-.309.869-.628 1.256-.954l.752-.627.045.304c.04.269.113.554.219.847.108.297.254.587.44.862.19.285.44.52.733.693.06.04.181.119.283.022a.195.195 0 0 0 .053-.106c.09.02.175.123.233.21.133.202.294.365.48.485l.076.051v.284l.347-.34c.054.03.139.03.25.03.181 0 .31-.101.34-.27.003-.018.007-.035.085-.035h.018l.002.001c.052.1.177.11.29.11a.493.493 0 0 0 .435-.25c.028-.044.072-.09.103-.087l.173.034v-.173a.543.543 0 0 0-.037-.185.794.794 0 0 0 .205.022c.192 0 .456-.158.832-.496.249-.224.505-.474.764-.747.027.097.083.2.17.311.127.162.274.326.436.486.166.162.344.309.532.435.198.132.36.208.52.232.164 0 .317-.02.453-.062.167-.05.298-.201.39-.45.076-.223.185-.547.327-.974.14-.425.295-.872.466-1.344l.48-1.333c.15-.41.27-.707.363-.887.428-.879.833-1.572 1.203-2.06.369-.491.785-.987 1.236-1.476a7.03 7.03 0 0 1 1.455-1.211 5.7 5.7 0 0 1 1.765-.7h.192c.031.024.047.04.052.044 0 .002.009.03-.008.148 0 .01-.005.073-.092.346-.068.205-.133.425-.2.657-.064.226-.13.433-.196.617l-.128.363-.008.045c0 .148.013.25.036.32.035.103.13.178.307.234.209.042.468.033.782-.026.157-.019.322-.047.496-.086l.032-.01c.17-.083.355-.24.568-.479m-15.663-1.592c0 .122-.053.366-.307.835-.214.393-.455.791-.716 1.184-.262.395-.519.763-.76 1.091-.315.427-.41.54-.452.583-.464.618-1.01 1.21-1.622 1.756-.617.55-1.142.986-1.56 1.298-.41.303-.933.657-1.555 1.054h-.397a.427.427 0 0 1-.01-.109c0-.383.146-.857.435-1.406.297-.566.683-1.16 1.148-1.772.464-.61.994-1.234 1.575-1.849a31.421 31.421 0 0 1 1.676-1.658 12.7 12.7 0 0 1 1.455-1.168c.442-.296.692-.391.833-.415.17.21.257.404.257.576M18.52 69.291l.014-.042c.053-.154.123-.303.223-.464.072-.176.172-.364.302-.562.293-.47.614-.919.951-1.331.335-.411.669-.78.994-1.1.325-.32.63-.585.906-.792.26-.197.48-.342.655-.43h.15c-.097.333-.3.725-.602 1.168-.362.528-.781 1.05-1.247 1.552-.465.502-.95.96-1.443 1.361a6.71 6.71 0 0 1-.903.64"/></g></svg>