<?xml version="1.0" encoding="UTF-8" standalone="no"?>
<!-- Created with Inkscape (http://www.inkscape.org/) -->
<svg xmlns:dc="http://purl.org/dc/elements/1.1/" xmlns:cc="http://creativecommons.org/ns#" xmlns:rdf="http://www.w3.org/1999/02/22-rdf-syntax-ns#" xmlns:svg="http://www.w3.org/2000/svg" xmlns="http://www.w3.org/2000/svg" xmlns:xlink="http://www.w3.org/1999/xlink" xmlns:sodipodi="http://sodipodi.sourceforge.net/DTD/sodipodi-0.dtd" xmlns:inkscape="http://www.inkscape.org/namespaces/inkscape" width="200" height="78.286865" id="svg2" version="1.1" inkscape:version="0.48.1 " sodipodi:docname="New document 1">
  <defs id="defs4">
    <linearGradient id="linearGradient3207">
      <stop id="stop3209" offset="0" style="stop-color:#2a3793;stop-opacity:1"/>
      <stop style="stop-color:#203e98;stop-opacity:1" offset="0.1" id="stop3211"/>
      <stop style="stop-color:#124a9d;stop-opacity:1" offset="0.19714899" id="stop3213"/>
      <stop style="stop-color:#0a4fa4;stop-opacity:1" offset="0.30097657" id="stop3215"/>
      <stop style="stop-color:#005aaa;stop-opacity:1" offset="0.40000001" id="stop3217"/>
      <stop style="stop-color:#0063b1;stop-opacity:1" offset="0.5" id="stop3219"/>
      <stop style="stop-color:#0270bb;stop-opacity:1" offset="0.60000002" id="stop3221"/>
      <stop style="stop-color:#0187d0;stop-opacity:1" offset="0.69756943" id="stop3223"/>
      <stop style="stop-color:#0194d9;stop-opacity:1" offset="0.80000001" id="stop3225"/>
      <stop style="stop-color:#14a7ea;stop-opacity:1" offset="0.89999998" id="stop3227"/>
      <stop id="stop3229" offset="1" style="stop-color:#0da4d8;stop-opacity:1"/>
    </linearGradient>
    <linearGradient id="linearGradient3179">
      <stop style="stop-color:#c1d26a;stop-opacity:1" offset="0" id="stop3181"/>
      <stop id="stop3203" offset="0.1" style="stop-color:#cbde46;stop-opacity:1"/>
      <stop id="stop3201" offset="0.19714899" style="stop-color:#bad246;stop-opacity:1"/>
      <stop id="stop3199" offset="0.30097657" style="stop-color:#a0c441;stop-opacity:1"/>
      <stop id="stop3197" offset="0.40000001" style="stop-color:#89b546;stop-opacity:1"/>
      <stop id="stop3195" offset="0.5" style="stop-color:#66a645;stop-opacity:1"/>
      <stop id="stop3193" offset="0.60000002" style="stop-color:#459f47;stop-opacity:1"/>
      <stop id="stop3191" offset="0.69756943" style="stop-color:#219540;stop-opacity:1"/>
      <stop id="stop3189" offset="0.80000001" style="stop-color:#139246;stop-opacity:1"/>
      <stop id="stop3187" offset="0.89999998" style="stop-color:#088147;stop-opacity:1"/>
      <stop style="stop-color:#176d3e;stop-opacity:1" offset="1" id="stop3183"/>
    </linearGradient>
    <linearGradient inkscape:collect="always" xlink:href="#linearGradient3179" id="linearGradient3185" x1="583.46936" y1="1208.3575" x2="714.31927" y2="1286.1226" gradientUnits="userSpaceOnUse"/>
    <linearGradient inkscape:collect="always" xlink:href="#linearGradient3207" id="linearGradient3205" x1="684.31708" y1="1074.8885" x2="789.0462" y2="1260.686" gradientUnits="userSpaceOnUse"/>
    <linearGradient inkscape:collect="always" xlink:href="#linearGradient3207" id="linearGradient3249" gradientUnits="userSpaceOnUse" x1="684.31708" y1="1074.8885" x2="789.0462" y2="1260.686"/>
    <linearGradient inkscape:collect="always" xlink:href="#linearGradient3179" id="linearGradient3251" gradientUnits="userSpaceOnUse" x1="583.46936" y1="1208.3575" x2="714.31927" y2="1286.1226"/>
    <linearGradient inkscape:collect="always" xlink:href="#linearGradient3207" id="linearGradient3253" gradientUnits="userSpaceOnUse" x1="684.31708" y1="1074.8885" x2="789.0462" y2="1260.686"/>
    <linearGradient inkscape:collect="always" xlink:href="#linearGradient3179" id="linearGradient3255" gradientUnits="userSpaceOnUse" x1="583.46936" y1="1208.3575" x2="714.31927" y2="1286.1226"/>
  </defs>
  <sodipodi:namedview id="base" pagecolor="#ffffff" bordercolor="#666666" borderopacity="1.0" inkscape:pageopacity="0.0" inkscape:pageshadow="2" inkscape:zoom="4.2949983" inkscape:cx="82.099855" inkscape:cy="44.547348" inkscape:document-units="px" inkscape:current-layer="layer1" showgrid="false" fit-margin-top="0.5" fit-margin-left="0.5" fit-margin-right="0.5" fit-margin-bottom="0.5" inkscape:window-width="1920" inkscape:window-height="1000" inkscape:window-x="-8" inkscape:window-y="-8" inkscape:window-maximized="1">
    <inkscape:grid type="xygrid" id="grid2996" empspacing="5" visible="true" enabled="true" snapvisiblegridlinesonly="true"/>
  </sodipodi:namedview>
  <metadata id="metadata7">
    <rdf:RDF>
      <cc:Work rdf:about="">
        <dc:format>image/svg+xml</dc:format>
        <dc:type rdf:resource="http://purl.org/dc/dcmitype/StillImage"/>
        <dc:title/>
      </cc:Work>
    </rdf:RDF>
  </metadata>
  <g inkscape:label="Layer 1" inkscape:groupmode="layer" id="layer1" transform="translate(120.5,-1371.057)">
    <g id="g3231" transform="matrix(0.2066459,0,0,0.2066459,-95.202493,1149.4462)">
      <path id="path3130" d="m -120,1313.8438 0,134 62.25,0 c 25.833274,0 40.75,-8.9515 40.75,-40.1876 0,-16.2599 -6.73037,-27.5123 -23.625,-29.8124 13.204146,-4.1538 20.125,-10.674 20.125,-29.4376 0,-26.1004 -12.414882,-34.5624 -39.5,-34.5624 l -60,0 z m 25,21 29,0 c 16.53208,0 21,4.6413 21,16.625 0,13.3666 -3.244843,18.375 -20.3125,18.375 l -29.6875,0 0,-35 z m 0,55 34.9375,0 c 14.2101,0 18.0625,5.6588 18.0625,18.5624 0,15.5994 -6.876176,18.4376 -18,18.4376 l -35,0 0,-37 z" style="fill:#052d72;fill-opacity:1;stroke:none" inkscape:connector-curvature="0"/>
      <path style="fill:#052d72;fill-opacity:1;stroke:none" d="m 20,1447.8375 -24.470332,0 0,-66 c 0,-25.0556 13.6938606,-33 42.470332,-33 10.096614,0 21,1 21,1 0,12.8395 -4.233106,19.4654 -17.7716,19.5067 l -7.52508,0.023 C 25.652642,1369.3672 20,1371.0051 20,1381.865 z" id="path3136" inkscape:connector-curvature="0" sodipodi:nodetypes="cccccsccc"/>
      <g style="fill:#052d72;fill-opacity:1;stroke:none" transform="translate(0,888.47533)" id="g3138">
        <path sodipodi:nodetypes="ccccc" inkscape:connector-curvature="0" id="path3140" d="m 95,559.36218 -24.5,0 0,-98 24.5,0 z" style="fill:#052d72;fill-opacity:1;stroke:none"/>
        <path sodipodi:nodetypes="cccccc" inkscape:connector-curvature="0" id="path3142" d="m 95,452.86218 -24.5,0 0,-7.5 c 0,-10.06118 6.448482,-17 18.5,-17 l 6,0 z" style="fill:#052d72;fill-opacity:1;stroke:none"/>
      </g>
      <g style="fill:#052d72;fill-opacity:1;stroke:none" id="g3144" transform="translate(127,888.47533)">
        <path style="fill:#052d72;fill-opacity:1;stroke:none" d="m 95,559.36218 -24.5,0 0,-98 24.5,0 z" id="path3146" inkscape:connector-curvature="0" sodipodi:nodetypes="ccccc"/>
        <path style="fill:#052d72;fill-opacity:1;stroke:none" d="m 95,452.86218 -24.5,0 0,-7.5 c 0,-10.06118 6.448482,-17 18.5,-17 l 6,0 z" id="path3148" inkscape:connector-curvature="0" sodipodi:nodetypes="cccccc"/>
      </g>
      <path style="fill:#052d72;fill-opacity:1;stroke:none" d="m 181,1427.8375 0.52967,19.1766 c 0,0 -9.22639,1.8234 -19.52967,1.8234 -19.40554,0 -36.5,-5.8789 -36.5,-33 l 0,-46.5 -18,0 0,-19.5 18,0 0,-16 c 0,-10.048 6.06132,-17 19.5,-17 l 5,0 0,33 34,0 0,4 c 0,10.8954 -5.92762,15.5 -16,15.5 l -18,0 0,46.5 c 0,5.5565 2.28806,13 15,13 4.9839,0 16,-1 16,-1 z" id="path3150" inkscape:connector-curvature="0" sodipodi:nodetypes="ccccccccccccccccccc"/>
      <path style="fill:#052d72;fill-opacity:1;stroke:none" d="m 238.61795,1447.0141 1.02894,-20.1766 c 0,0 15.42187,1.4414 33,1.4414 17.02427,0 20.35311,-4.2123 20.35311,-9 0,-20.7899 -57,0.9684 -57,-42 0,-21.5258 14.55586,-28.4414 43,-28.4414 11.77967,0 33,2 33,2 0,16.7659 -9.08005,18.4414 -14.94066,18.4414 -7.27804,0 -17.6672,-1.4414 -24.05934,-1.4414 -9.02765,0 -13.44139,3.3746 -13.44139,9 0,20.4263 57.44139,0.5115 57.44139,43 0,18.4829 -14.58085,29 -42,29 -21.93956,0 -36.38205,-1.8234 -36.38205,-1.8234 z" id="path3152" inkscape:connector-curvature="0" sodipodi:nodetypes="ccccccccccccc"/>
      <path sodipodi:nodetypes="ccccccccccccc" inkscape:connector-curvature="0" id="path3154" d="m 693.1961,1447.0141 1.02894,-20.1766 c 0,0 15.42187,1.4414 33,1.4414 17.02427,0 20.35311,-4.2123 20.35311,-9 0,-20.7899 -57,0.9684 -57,-42 0,-21.5258 14.55586,-28.4414 43,-28.4414 11.77967,0 33,2 33,2 0,16.7659 -9.08005,18.4414 -14.94066,18.4414 -7.27804,0 -17.6672,-1.4414 -24.05934,-1.4414 -9.02765,0 -13.44139,3.3746 -13.44139,9 0,20.4263 57.44139,0.5115 57.44139,43 0,18.4829 -14.58085,29 -42,29 -21.93956,0 -36.38205,-1.8234 -36.38205,-1.8234 z" style="fill:#052d72;fill-opacity:1;stroke:none"/>
      <path style="fill:#052d72;fill-opacity:1;stroke:none" d="m 353,1447.8375 -24,0 0,-121.2344 c 0,-12.8766 9.93733,-15.7656 19,-15.7656 l 5,0 0,49.7945 c 7.13409,-4.1963 25.21393,-11.7945 41,-11.7945 24.16649,0 27,17.923 27,33.5586 l 0,65.4414 -24,0 0,-65 c 0,-6.2459 -3.91299,-12 -12,-12 -9.02383,0 -24.59962,5.9513 -32,8.9711 z" id="path3156" inkscape:connector-curvature="0" sodipodi:nodetypes="cccccccccccccc"/>
      <path style="fill:#052d72;fill-opacity:1;stroke:none" d="m 525,1370.8375 51,0 0,72.0612 c 0,0 -38.39974,5.9388 -55.93883,5.9388 -42.19453,0 -53.06117,-23.41 -53.06117,-62 l 0,-16 c 0,-49.7235 19.8478,-58 57.5061,-58 19.76527,0 47.32927,4.8354 47.32927,4.8354 0,12.7182 -7.65984,19.1646 -17.15245,19.1646 -7.87307,0 -20.24358,-3 -31.68292,-3 -19.60702,0 -30,4.9941 -30,41 l 0,6.3902 c 0,16.5411 -3.08789,45.6098 28,45.6098 13.24591,-0.041 30,-2 30,-2 l 0,-34 -11,0 c -9.29662,0 -15,-4.9183 -15,-14.9878 z" id="path3158" inkscape:connector-curvature="0" sodipodi:nodetypes="cccccccccccccccccc"/>
      <path id="path3160" d="m 644,1349.8438 c -23.67856,0 -45,2.4062 -45,2.4062 0,12.0245 2.80065,18.5 14.34375,18.5 5.72534,0 16.58572,-0.9062 28.65625,-0.9062 8.92543,0 11,4.7374 11,10 l 0,4.5 c -30.92055,3.1477 -64,1.2339 -64,33.1562 0,20.6875 6.62247,31.3438 35,31.3438 26.85018,0 53,-3 53,-3 l 0,-64 c 0,-19.6578 -4.25663,-32 -33,-32 z m 9,52 0,28 c 0,0 -15.64611,1 -26,1 -10.56841,0 -15,-3.8527 -15,-12 0,-14.4919 13.7078,-14.2572 41,-17 z" style="fill:#052d72;fill-opacity:1;stroke:none" inkscape:connector-curvature="0"/>
      <path style="fill:url(#linearGradient3253);stroke:none" d="m 621.98137,1186.3905 c 8.57021,-35.1357 35.15286,-52.4022 113.13505,-76.1351 40.26304,-13.0522 75.68198,-24.5361 107.88358,-35.4179 0,116.0261 -43.31836,173.1117 -124.54162,191.0218 C 745.86337,1244.2982 767,1202.0763 767,1135.8375 c -113.066,38.1549 -121.29694,36.846 -145.01863,50.553 z" id="path3166" inkscape:connector-curvature="0" sodipodi:nodetypes="cccccc"/>
      <path style="fill:url(#linearGradient3255);fill-opacity:1;stroke:none" d="m 649.4939,1290.8375 c -38.94154,0 -61.08231,-27.5063 -61.08231,-55.6585 0,-18.4824 11.71523,-38.1882 33.58841,-48.8476 -8.10755,50.0151 34.50522,91.671 96.4939,79.5061 -13.69812,10.2737 -43.75327,25 -69,25 z" id="path3164" inkscape:connector-curvature="0" sodipodi:nodetypes="ccccc"/>
    </g>
  </g>
</svg>