<svg width="91" height="106" viewBox="0 0 91 106" xmlns="http://www.w3.org/2000/svg"><title>D0B75905-FCD1-4916-A652-F51B45DA980C</title><g fill="none" fill-rule="evenodd"><path d="M22.6 80.476c.14-9.327 13.867-19.256 23.2-19.256 9.287 0 23.06 9.93 23.2 19.256C62.98 89.57 56.2 99.4 44.534 99.4c-11.667 0-15.914-9.831-21.934-18.924zm37.2-40.615c0 7.78-6.253 14.06-14 14.06s-14-6.28-14-14.06S38.053 25.8 45.8 25.8s14 6.28 14 14.06z" fill="#259799"/><path d="M45.377 5l1.506.763c1.004.509 1.668.842 1.99 1 .323.158 1.422.671 3.296 1.54 1.874.868 2.842 1.307 2.905 1.316.063.009.56.215 1.493.618.932.404 1.65.702 2.152.895a84.19 84.19 0 0 0 2.179.79l1.802.631a48.978 48.978 0 0 0 2.394.763c.592.176 1.345.386 2.26.632.914.246 1.802.465 2.663.658.86.193 1.417.316 1.668.369.25.052 1.049.201 2.394.447 1.345.246 2.188.395 2.528.447l2.502.395c1.327.21 2 .316 2.017.316.018 0 .664.123 1.937.368 1.273.246 1.915.373 1.924.382l-.068 3.934c-.054 2.615-.188 5.992-.403 10.133-.215 4.14-.386 7.036-.511 8.685a71.88 71.88 0 0 1-.43 4.237 52.086 52.086 0 0 1-.566 3.342 113.456 113.456 0 0 1-.699 3.185c-.251 1.07-.475 2.009-.672 2.816-.198.807-.43 1.675-.7 2.605-.269.93-.43 1.492-.484 1.685-.054.193-.135.438-.242.737-.108.298-.233.666-.377 1.105-.143.439-.367 1.07-.672 1.895a80.05 80.05 0 0 1-.753 1.974c-.198.491-.44 1.079-.727 1.763A73.265 73.265 0 0 1 76.58 67.9c-.448.965-.717 1.526-.807 1.684l-.981 1.724a72.52 72.52 0 0 1-1.023 1.763c-.116.185-.394.65-.834 1.395a40.34 40.34 0 0 1-.86 1.421c-.135.202-.341.518-.619.948a25.8 25.8 0 0 1-.673 1c-.17.237-.367.517-.591.842-.225.325-.44.623-.646.895-.206.272-.368.5-.484.684a9.714 9.714 0 0 1-.511.71c-.224.29-.44.58-.646.87-.206.289-.43.587-.672.894-.242.307-.449.57-.619.79-.17.219-.534.636-1.09 1.25a111.921 111.921 0 0 1-3.954 4.132c-.574.561-.955.916-1.143 1.065-.188.15-.628.527-1.318 1.132-.69.605-1.112.974-1.264 1.105l-1.13.974c-.6.518-.995.851-1.184 1-.188.15-.403.325-.645.527-.242.201-.579.478-1.01.829-.43.35-.757.61-.98.776-.225.167-.44.316-.647.448-.206.131-.582.36-1.13.684-.546.324-.905.544-1.075.658-.17.114-.363.232-.579.355-.215.123-.439.263-.672.421-.233.158-.404.272-.511.342a8.15 8.15 0 0 1-.7.369c-.358.175-.789.377-1.29.605-.503.228-.853.377-1.05.447l-.296.106-.323-.08a3.507 3.507 0 0 1-.699-.262c-.251-.123-.672-.334-1.264-.632s-.933-.483-1.022-.553c-.09-.07-.319-.223-.686-.46a38.807 38.807 0 0 0-.834-.527c-.189-.114-.556-.333-1.103-.658a48.34 48.34 0 0 1-1.13-.684c-.206-.131-.421-.28-.646-.447a30.45 30.45 0 0 1-.766-.592c-.287-.229-.668-.54-1.143-.935l-1.238-1.026c-.35-.29-.86-.728-1.533-1.316a48.16 48.16 0 0 0-1.291-1.105c-.189-.15-.601-.5-1.238-1.053-.636-.553-.99-.864-1.062-.934l-.955-.935c-.565-.552-.96-.947-1.184-1.184-.224-.237-.717-.763-1.48-1.58-.761-.815-1.219-1.315-1.371-1.5a408.21 408.21 0 0 1-.673-.815c-.296-.36-.529-.65-.7-.869-.17-.219-.34-.447-.51-.684a66.97 66.97 0 0 0-1.05-1.421 13.819 13.819 0 0 1-.39-.54 20.445 20.445 0 0 0-.443-.618c-.188-.254-.35-.482-.484-.684a60.694 60.694 0 0 0-.538-.79 24.37 24.37 0 0 1-.511-.763 63.274 63.274 0 0 0-.565-.868c-.26-.395-.43-.667-.511-.816a38.42 38.42 0 0 0-.673-1.132c-.368-.605-.61-1-.726-1.184a52.333 52.333 0 0 1-.874-1.514c-.467-.824-.816-1.447-1.05-1.868-.233-.421-.439-.816-.618-1.184-.18-.369-.43-.922-.753-1.659-.323-.736-.485-1.114-.485-1.131 0-.018-.161-.421-.484-1.21-.323-.79-.574-1.413-.753-1.87-.18-.456-.43-1.149-.753-2.079a85.694 85.694 0 0 1-.969-2.973 97.658 97.658 0 0 1-1.076-3.843 95.4 95.4 0 0 1-.834-3.369c-.16-.736-.385-1.807-.672-3.21-.287-1.404-.457-2.325-.511-2.764-.054-.438-.17-1.78-.35-4.026-.18-2.246-.296-3.94-.35-5.08-.053-1.14-.116-2.35-.188-3.632-.072-1.28-.17-3.377-.296-6.29C5.063 22.484 5 20.422 5 19.212v-1.816c.291-.154.61-.228 1.13-.316.52-.088 1.237-.202 2.152-.342.914-.14 2.304-.369 4.17-.684 1.864-.316 3.2-.544 4.007-.685.807-.14 1.874-.36 3.201-.658a81.46 81.46 0 0 0 3.444-.842 53.233 53.233 0 0 0 2.501-.737c.7-.228 1.247-.403 1.641-.526.395-.123.771-.246 1.13-.369a99.576 99.576 0 0 0 2.152-.79 60.617 60.617 0 0 0 3.026-1.223c.942-.412 1.444-.623 1.507-.632.062-.008.515-.206 1.358-.592.843-.386 1.605-.737 2.286-1.052A217.25 217.25 0 0 0 40.723 7a89.186 89.186 0 0 0 2.475-1.237L44.678 5h.699z" stroke-width="10" stroke="#259799"/></g></svg>