<?xml version="1.0" encoding="utf-8"?>
<!-- Generator: Adobe Illustrator 20.1.0, SVG Export Plug-In . SVG Version: 6.00 Build 0)  -->
<svg version="1.1" id="Layer_1" xmlns="http://www.w3.org/2000/svg" xmlns:xlink="http://www.w3.org/1999/xlink" x="0px" y="0px"
	 viewBox="0 0 50 50" style="enable-background:new 0 0 50 50;" xml:space="preserve">
<style type="text/css">
	.st0{fill:#1D1D1B;}
	.st1{fill:#282828;}
</style>
<g>
	<g>
		<g>
			<g>
				<g>
					<path class="st0" d="M24.8,49.7C11.1,49.7,0,38.6,0,25S11.1,0.2,24.8,0.2c13.6,0,24.8,11.1,24.8,24.8S38.4,49.7,24.8,49.7z
						 M24.8,0.7C11.4,0.7,0.5,11.6,0.5,25s10.9,24.2,24.2,24.2C38.1,49.2,49,38.4,49,25S38.1,0.7,24.8,0.7z"/>
				</g>
			</g>
		</g>
		<g>
			<path class="st1" d="M33.9,31.2c-0.5-0.4-1.2-0.4-1.6,0.1c-1.8,2-4.4,3.1-7.1,3.1c-5.2,0-9.5-4.3-9.5-9.5c0-5.2,4.3-9.5,9.5-9.5
				c2.7,0,5.3,1.2,7.2,3.2c0.4,0.5,1.2,0.5,1.6,0.1c0.5-0.4,0.5-1.2,0.1-1.6c-1.5-1.7-3.4-3-5.7-3.6v-2.2c0-0.6-0.5-1.2-1.1-1.2
				c-0.6,0-1.1,0.5-1.1,1.2v1.8c-0.4,0-0.6,0-0.9,0c-0.4,0-0.8,0-1.2,0.1v-1.8c0-0.6-0.5-1.2-1.1-1.2c-0.6,0-1.1,0.5-1.1,1.2v2.3
				c-4.9,1.5-8.3,6-8.3,11.3s3.4,9.8,8.3,11.3v2.4c0,0.6,0.5,1.2,1.1,1.2c0.6,0,1.1-0.5,1.1-1.2v-1.9c0.5,0,0.8,0.1,1.2,0.1
				c0.3,0,0.6,0,0.9,0v1.9c0,0.6,0.5,1.2,1.1,1.2c0.6,0,1.1-0.5,1.1-1.2v-2.3c2.2-0.6,4.1-1.8,5.6-3.5
				C34.4,32.4,34.4,31.7,33.9,31.2"/>
		</g>
		<g>
			<path class="st1" d="M25.2,20.4c1.3,0,2.5,0.6,3.3,1.5c0.4,0.5,1.2,0.5,1.6,0.1c0.5-0.4,0.5-1.2,0.1-1.6
				c-1.3-1.5-3.1-2.3-5.1-2.3c-3.7,0-6.8,3-6.8,6.8c0,3.7,3,6.8,6.8,6.8c1.9,0,3.7-0.8,5-2.2c0.4-0.5,0.4-1.2-0.1-1.6
				c-0.5-0.4-1.2-0.4-1.6,0.1c-0.8,0.9-2,1.5-3.3,1.5c-2.4,0-4.4-2-4.4-4.4C20.7,22.4,22.7,20.4,25.2,20.4"/>
		</g>
	</g>
</g>
</svg>
