<?xml version="1.0" encoding="utf-8"?>
<!-- Generator: Adobe Illustrator 20.1.0, SVG Export Plug-In . SVG Version: 6.00 Build 0)  -->
<svg version="1.1" id="Layer_1" xmlns="http://www.w3.org/2000/svg" xmlns:xlink="http://www.w3.org/1999/xlink" x="0px" y="0px"
	 viewBox="0 0 50 50" style="enable-background:new 0 0 50 50;" xml:space="preserve">
<style type="text/css">
	.st0{fill:#FFFFFF;}
</style>
<g>
	<path class="st0" d="M21,24.9c0,2.4,2,4.4,4.4,4.4c1.3,0,2.4-0.5,3.3-1.5c0.4-0.5,1.2-0.5,1.6-0.1c0.5,0.4,0.5,1.2,0.1,1.6
		c-1.3,1.4-3.1,2.2-5,2.2c-3.7,0-6.8-3-6.8-6.8s3-6.8,6.8-6.8c1.9,0,3.8,0.8,5.1,2.3c0.4,0.5,0.4,1.2-0.1,1.6
		c-0.5,0.4-1.2,0.4-1.6-0.1c-0.8-1-2.1-1.5-3.3-1.5C23,20.4,21,22.4,21,24.9 M34.3,18.8c-0.5,0.4-1.2,0.4-1.6-0.1
		c-1.8-2.1-4.4-3.2-7.2-3.2c-5.2,0-9.5,4.3-9.5,9.5c0,5.2,4.3,9.5,9.5,9.5c2.7,0,5.3-1.1,7.1-3.1c0.4-0.5,1.2-0.5,1.6-0.1
		c0.5,0.4,0.5,1.2,0.1,1.6c-1.5,1.7-3.4,2.9-5.6,3.5v2.3c0,0.6-0.5,1.2-1.1,1.2c-0.6,0-1.1-0.5-1.1-1.2v-1.9c-0.4,0-0.6,0-0.9,0
		c-0.4,0-0.8,0-1.2-0.1v1.9c0,0.6-0.5,1.2-1.1,1.2c-0.6,0-1.1-0.5-1.1-1.2v-2.4c-4.9-1.5-8.3-6-8.3-11.3s3.4-9.8,8.3-11.3v-2.3
		c0-0.6,0.5-1.2,1.1-1.2c0.6,0,1.1,0.5,1.1,1.2v1.8c0.5,0,0.8-0.1,1.2-0.1c0.3,0,0.6,0,0.9,0v-1.8c0-0.6,0.5-1.2,1.1-1.2
		c0.6,0,1.1,0.5,1.1,1.2v2.2c2.3,0.6,4.2,1.9,5.7,3.6C34.8,17.6,34.8,18.3,34.3,18.8 M49.5,25c0-13.5-11-24.5-24.5-24.5
		S0.5,11.5,0.5,25s11,24.5,24.5,24.5S49.5,38.5,49.5,25"/>
</g>
</svg>
