<?xml version="1.0" encoding="utf-8"?>
<!-- Generator: Adobe Illustrator 20.1.0, SVG Export Plug-In . SVG Version: 6.00 Build 0)  -->
<svg version="1.1" id="Layer_1" xmlns="http://www.w3.org/2000/svg" xmlns:xlink="http://www.w3.org/1999/xlink" x="0px" y="0px"
	 viewBox="0 0 50 50" style="enable-background:new 0 0 50 50;" xml:space="preserve">
<style type="text/css">
	.st0{clip-path:url(#SVGID_2_);fill:#006089;}
</style>
<g>
	<g>
		<defs>
			<rect id="SVGID_1_" x="0.5" y="0.5" width="49" height="49"/>
		</defs>
		<clipPath id="SVGID_2_">
			<use xlink:href="#SVGID_1_"  style="overflow:visible;"/>
		</clipPath>
		<path class="st0" d="M20.6,24.9c0,2.7,2.2,4.9,4.9,4.9c1.4,0,2.7-0.6,3.6-1.6c0.5-0.5,1.3-0.6,1.8-0.1s0.6,1.3,0.1,1.8
			c-1.4,1.6-3.4,2.5-5.5,2.5c-4.1,0-7.5-3.3-7.5-7.5c0-4.1,3.4-7.5,7.5-7.5c2.2,0,4.2,0.9,5.6,2.5c0.5,0.5,0.4,1.3-0.1,1.8
			s-1.3,0.4-1.8-0.1c-0.9-1.1-2.3-1.7-3.7-1.7C22.8,20,20.6,22.2,20.6,24.9 M35.2,18.1c-0.5,0.5-1.3,0.4-1.8-0.1
			c-2-2.3-4.9-3.6-7.9-3.6c-5.8,0-10.5,4.7-10.5,10.5s4.7,10.5,10.5,10.5c3,0,5.8-1.3,7.8-3.5c0.5-0.5,1.3-0.6,1.8-0.1
			c0.5,0.5,0.5,1.3,0.1,1.8c-1.7,1.8-3.7,3.1-6.2,3.8V40c0,0.7-0.5,1.3-1.2,1.3s-1.2-0.6-1.2-1.3v-2c-0.4,0-0.7,0-1,0
			c-0.5,0-0.9,0-1.4-0.1v2.2c0,0.7-0.5,1.3-1.2,1.3s-1.2-0.6-1.2-1.3v-2.7c-5.4-1.7-9.2-6.6-9.2-12.5s3.8-10.8,9.2-12.5V9.9
			c0-0.7,0.5-1.3,1.2-1.3s1.2,0.6,1.2,1.3v2c0.5,0,0.9-0.1,1.4-0.1c0.3,0,0.6,0,1,0v-2c0-0.7,0.5-1.3,1.2-1.3S29,9.1,29,9.8v2.4
			c2.5,0.7,4.6,2,6.3,4C35.8,16.8,35.8,17.6,35.2,18.1 M49.5,25c0-13.5-11-24.5-24.5-24.5S0.5,11.5,0.5,25s11,24.5,24.5,24.5
			S49.5,38.5,49.5,25"/>
	</g>
</g>
</svg>
