<svg id="Layer_1" data-name="Layer 1" xmlns="http://www.w3.org/2000/svg" viewBox="0 0 33.53 48.15"><defs><style>.cls-1{fill:#fff;}</style></defs><title>changecoin-single</title><path class="cls-1" d="M32.69,34a1.8,1.8,0,0,0-2.54.12l0,0A15.34,15.34,0,1,1,18.68,8.53a16.13,16.13,0,0,1,11.59,5.15,1.83,1.83,0,0,0,2.86-2.29L33,11.26a18.38,18.38,0,0,0-9.18-5.8V1.93A1.93,1.93,0,0,0,22.06,0a1.83,1.83,0,0,0-1.77,1.89V4.85H18.84A7.84,7.84,0,0,0,16.9,5V2.09A1.93,1.93,0,0,0,15.13.16,1.83,1.83,0,0,0,13.36,2V5.79A18.89,18.89,0,0,0,0,24a18.89,18.89,0,0,0,13.37,18.2V46a1.93,1.93,0,0,0,1.76,2,1.83,1.83,0,0,0,1.78-1.88s0-.08,0-.12V43c.81,0,1.29.16,1.93.16h1.45v3.06a1.93,1.93,0,0,0,1.77,1.93,1.83,1.83,0,0,0,1.77-1.89V42.54a18.35,18.35,0,0,0,9-5.64,2.2,2.2,0,0,0-.16-2.9" transform="translate(0 -0.02)"/><path class="cls-1" d="M18.68,16.58A7.18,7.18,0,0,1,24,19a1.84,1.84,0,0,0,2.75-2.44,10.65,10.65,0,0,0-8.21-3.7,11,11,0,1,0,8,18.36A1.83,1.83,0,0,0,24,28.69l-.12.13a7.08,7.08,0,0,1-12.4-4.67,7.29,7.29,0,0,1,7-7.56h.25" transform="translate(0 -0.02)"/></svg>