<?xml version="1.0" encoding="utf-8"?>
<!-- Generator: Adobe Illustrator 20.1.0, SVG Export Plug-In . SVG Version: 6.00 Build 0)  -->
<svg version="1.1" id="Layer_1" xmlns="http://www.w3.org/2000/svg" xmlns:xlink="http://www.w3.org/1999/xlink" x="0px" y="0px"
	 viewBox="0 0 50 50" style="enable-background:new 0 0 50 50;" xml:space="preserve">
<style type="text/css">
	.st0{clip-path:url(#SVGID_2_);}
	.st1{clip-path:url(#SVGID_4_);}
	.st2{clip-path:url(#SVGID_6_);}
	.st3{fill:#1D1D1B;}
	.st4{fill:#282828;}
</style>
<g>
	<defs>
		<rect id="SVGID_1_" x="0.2" y="0.3" width="49.5" height="49.5"/>
	</defs>
	<clipPath id="SVGID_2_">
		<use xlink:href="#SVGID_1_"  style="overflow:visible;"/>
	</clipPath>
	<g class="st0">
		<defs>
			<rect id="SVGID_3_" x="0.2" y="0.3" width="49.5" height="49.5"/>
		</defs>
		<clipPath id="SVGID_4_">
			<use xlink:href="#SVGID_3_"  style="overflow:visible;"/>
		</clipPath>
		<g class="st1">
			<g>
				<defs>
					<rect id="SVGID_5_" x="-8.8" y="-6.7" width="67.5" height="57.5"/>
				</defs>
				<clipPath id="SVGID_6_">
					<use xlink:href="#SVGID_5_"  style="overflow:visible;"/>
				</clipPath>
				<g class="st2">
					<path class="st3" d="M25,49.8c-13.6,0-24.8-11.1-24.8-24.7S11.4,0.3,25,0.3c13.6,0,24.8,11.1,24.8,24.8S38.6,49.8,25,49.8z
						 M25,0.8C11.6,0.8,0.8,11.7,0.8,25.1S11.6,49.3,25,49.3c13.4,0,24.2-10.9,24.2-24.2S38.4,0.8,25,0.8z"/>
				</g>
			</g>
		</g>
		<g class="st1">
			<path class="st4" d="M31.3,14.5c-0.3,0.3-0.5,0.7-0.7,1c0,0-0.5,1.5-2.1-0.2L24,10.8l-3.7,3.7c-1.6,1.6-0.2,2.1-0.2,2.1
				c0.4,0.1,0.7,0.3,1,0.7c1.1,1.1,1.1,2.8,0,3.9c-1.1,1.1-2.8,1.1-3.9,0c-0.3-0.3-0.5-0.7-0.6-1c0,0-0.5-1.5-2.1,0.2l-3.8,3.8
				l4.5,4.5c1.6,1.6,0.2,2.1,0.2,2.1c-0.4,0.1-0.7,0.3-1,0.7c-1.1,1.1-1.1,2.8,0,3.9h0c1.1,1.1,2.8,1.1,3.9,0c0.3-0.3,0.5-0.7,0.7-1
				c0,0,0.5-1.5,2.1,0.2l4.5,4.5l3.8-3.8c1.6-1.6,0.2-2.1,0.2-2.1c-0.4-0.1-0.7-0.3-1-0.7c-1.1-1.1-1.1-2.8,0-3.9l0,0
				c1.1-1.1,2.8-1.1,3.9,0c0.3,0.3,0.5,0.7,0.7,1c0,0,0.5,1.5,2.1-0.2l3.7-3.7l-4.5-4.5c-1.6-1.6-0.2-2.1-0.2-2.1
				c0.4-0.1,0.7-0.3,1-0.6c1.1-1.1,1.1-2.8,0-3.9h0C34.1,13.4,32.4,13.4,31.3,14.5"/>
		</g>
	</g>
</g>
</svg>
