<?xml version="1.0" encoding="utf-8"?>
<!-- Generator: Adobe Illustrator 20.1.0, SVG Export Plug-In . SVG Version: 6.00 Build 0)  -->
<svg version="1.1" id="Layer_1" xmlns="http://www.w3.org/2000/svg" xmlns:xlink="http://www.w3.org/1999/xlink" x="0px" y="0px"
	 viewBox="0 0 50 50" style="enable-background:new 0 0 50 50;" xml:space="preserve">
<style type="text/css">
	.st0{clip-path:url(#SVGID_2_);}
	.st1{clip-path:url(#SVGID_4_);}
	.st2{clip-path:url(#SVGID_6_);fill:#006089;}
</style>
<g>
	<g>
		<defs>
			<rect id="SVGID_1_" x="0.5" y="0.6" width="49" height="49"/>
		</defs>
		<clipPath id="SVGID_2_">
			<use xlink:href="#SVGID_1_"  style="overflow:visible;"/>
		</clipPath>
		<g class="st0">
			<g>
				<defs>
					<rect id="SVGID_3_" x="0.5" y="0.6" width="49" height="49"/>
				</defs>
				<clipPath id="SVGID_4_">
					<use xlink:href="#SVGID_3_"  style="overflow:visible;"/>
				</clipPath>
				<g class="st1">
					<g>
						<g>
							<defs>
								<rect id="SVGID_5_" x="-8.5" y="-6.4" width="67" height="57"/>
							</defs>
							<clipPath id="SVGID_6_">
								<use xlink:href="#SVGID_5_"  style="overflow:visible;"/>
							</clipPath>
							<path class="st2" d="M34.6,21.4l4.5,4.5l-3.7,3.7c-1.6,1.6-2.1,0.2-2.1,0.2c-0.1-0.4-0.3-0.7-0.6-1c-1.1-1.1-2.8-1.1-3.9,0
								l0,0c-1.1,1.1-1.1,2.8,0,3.9c0.3,0.3,0.7,0.5,1,0.7c0,0,1.5,0.5-0.2,2.1l-3.8,3.8l-4.5-4.5c-1.6-1.6-2.1-0.2-2.1-0.2
								c-0.1,0.4-0.4,0.7-0.7,1c-1.1,1.1-2.8,1.1-3.9,0l0,0c-1.1-1.1-1.1-2.8,0-3.9c0.3-0.3,0.7-0.5,1-0.6c0,0,1.5-0.5-0.2-2.1
								L11,24.3l3.8-3.8c1.6-1.6,2.1-0.2,2.1-0.2c0.1,0.4,0.3,0.7,0.6,1c1.1,1.1,2.8,1.1,3.9,0s1.1-2.8,0-3.9
								c-0.3-0.3-0.7-0.5-1-0.6c0,0-1.5-0.5,0.2-2.1l3.7-3.7l4.5,4.5c1.6,1.6,2.1,0.2,2.1,0.2c0.1-0.4,0.4-0.7,0.7-1
								c1.1-1.1,2.8-1.1,3.9,0l0,0c1.1,1.1,1.1,2.8,0,3.9c-0.3,0.3-0.7,0.5-1,0.6C34.4,19.2,32.9,19.7,34.6,21.4 M49.5,25.1
								c0-13.5-11-24.5-24.5-24.5S0.5,11.5,0.5,25.1s11,24.5,24.5,24.5S49.5,38.6,49.5,25.1"/>
						</g>
					</g>
				</g>
			</g>
		</g>
	</g>
</g>
</svg>
