<?xml version="1.0" encoding="UTF-8"?>
<svg width="83px" height="92px" viewBox="0 0 83 92" version="1.1" xmlns="http://www.w3.org/2000/svg" xmlns:xlink="http://www.w3.org/1999/xlink">
    <!-- Generator: Sketch 42 (36781) - http://www.bohemiancoding.com/sketch -->
    <title>icon - debit card</title>
    <desc>Created with Sketch.</desc>
    <defs></defs>
    <g id="Icons" stroke="none" stroke-width="1" fill="none" fill-rule="evenodd">
        <g id="icon---debit-card">
            <g id="Group-9" transform="translate(-18.000000, 0.000000)">
                <text id="DEBIT-CARD" font-family="OpenSans-Bold, Open Sans" font-size="13" font-weight="bold" letter-spacing="1" fill="#005F89">
                    <tspan x="16.8474121" y="92">DEBIT CARD</tspan>
                </text>
                <path d="M29,16 L92,16 L92,8 L29,8 L29,16 Z M29,56 L92,56 L92,32 L29,32 L29,56 Z M92.1,0 L28.9,0 C24.5155,0 21.0395,3.504375 21.0395,7.875 L21,55.125 C21,59.495625 24.5155,63 28.9,63 L92.1,63 C96.4845,63 100,59.495625 100,55.125 L100,7.875 C100,3.504375 96.4845,0 92.1,0 L92.1,0 Z" id="Page-1" fill="#0E6B92"></path>
                <text id="DEBIT" font-family="OpenSans-Bold, Open Sans" font-size="13" font-weight="bold" line-spacing="23" letter-spacing="2" fill="#FFFFFF">
                    <tspan x="36" y="26">DEBI</tspan>
                    <tspan x="73.9418945" y="26">T</tspan>
                </text>
            </g>
        </g>
    </g>
</svg>