<?xml version="1.0" encoding="utf-8"?>
<!-- Generator: Adobe Illustrator 21.0.0, SVG Export Plug-In . SVG Version: 6.00 Build 0)  -->
<svg version="1.1" id="Layer_1" xmlns="http://www.w3.org/2000/svg" xmlns:xlink="http://www.w3.org/1999/xlink" x="0px" y="0px"
	 viewBox="0 0 266.9 266.9" style="enable-background:new 0 0 266.9 266.9;" xml:space="preserve">
<style type="text/css">
	.st0{fill:#3C5A99;}
	.st1{fill:#FFFFFF;}
</style>
<path id="Blue_1_" class="st0" d="M223.8,235c6.2,0,11.2-5,11.2-11.2V43.1c0-6.2-5-11.2-11.2-11.2H43.1c-6.2,0-11.2,5-11.2,11.2
	v180.7c0,6.2,5,11.2,11.2,11.2H223.8z"/>
<path id="f" class="st1" d="M172,235v-78.7h26.4l4-30.7H172v-19.6c0-8.9,2.5-14.9,15.2-14.9l16.2,0V63.8c-2.8-0.4-12.4-1.2-23.7-1.2
	c-23.4,0-39.4,14.3-39.4,40.5v22.6h-26.5v30.7h26.5V235H172z"/>
</svg>
