<?xml version="1.0" encoding="UTF-8" standalone="no"?>
<!-- Created with Inkscape (http://www.inkscape.org/) -->

<svg
   xmlns:dc="http://purl.org/dc/elements/1.1/"
   xmlns:cc="http://creativecommons.org/ns#"
   xmlns:rdf="http://www.w3.org/1999/02/22-rdf-syntax-ns#"
   xmlns:svg="http://www.w3.org/2000/svg"
   xmlns="http://www.w3.org/2000/svg"
   xmlns:xlink="http://www.w3.org/1999/xlink"
   xmlns:sodipodi="http://sodipodi.sourceforge.net/DTD/sodipodi-0.dtd"
   xmlns:inkscape="http://www.inkscape.org/namespaces/inkscape"
   width="1000"
   height="273.875"
   id="svg3624"
   version="1.1"
   inkscape:version="0.48.5 r10040"
   sodipodi:docname="A.svg">
  <defs
     id="defs3626">
    <linearGradient
       x1="0"
       y1="0"
       x2="1"
       y2="0"
       gradientUnits="userSpaceOnUse"
       gradientTransform="matrix(0,37.3649,-37.3649,0,96.9723,19.544)"
       spreadMethod="pad"
       id="linearGradient3149">
      <stop
         style="stop-opacity:1;stop-color:#abd61f"
         offset="0"
         id="stop3151" />
      <stop
         style="stop-opacity:1;stop-color:#64b234"
         offset="0.166"
         id="stop3153" />
      <stop
         style="stop-opacity:1;stop-color:#3a9c41"
         offset="0.332001"
         id="stop3155" />
      <stop
         style="stop-opacity:1;stop-color:#449d4a"
         offset="0.498001"
         id="stop3157" />
      <stop
         style="stop-opacity:1;stop-color:#47a05f"
         offset="0.664001"
         id="stop3159" />
      <stop
         style="stop-opacity:1;stop-color:#3e967c"
         offset="0.830002"
         id="stop3161" />
      <stop
         style="stop-opacity:1;stop-color:#2f83af"
         offset="1"
         id="stop3163" />
    </linearGradient>
    <clipPath
       clipPathUnits="userSpaceOnUse"
       id="clipPath3129">
      <path
         inkscape:connector-curvature="0"
         d="m 66.472,17.12 61.229,0 0,39.999 -61.229,0 0,-39.999 z"
         id="path3131" />
    </clipPath>
    <linearGradient
       x1="0"
       y1="0"
       x2="1"
       y2="0"
       gradientUnits="userSpaceOnUse"
       gradientTransform="matrix(0,27.6297,-27.6297,0,96.9723,23.9807)"
       spreadMethod="pad"
       id="linearGradient3111">
      <stop
         style="stop-opacity:1;stop-color:#f5b314"
         offset="0"
         id="stop3113" />
      <stop
         style="stop-opacity:1;stop-color:#f4a019"
         offset="0.199997"
         id="stop3115" />
      <stop
         style="stop-opacity:1;stop-color:#f2781e"
         offset="0.399994"
         id="stop3117" />
      <stop
         style="stop-opacity:1;stop-color:#f06021"
         offset="0.600006"
         id="stop3119" />
      <stop
         style="stop-opacity:1;stop-color:#ef3724"
         offset="1"
         id="stop3121" />
    </linearGradient>
    <clipPath
       clipPathUnits="userSpaceOnUse"
       id="clipPath3948">
      <path
         inkscape:connector-curvature="0"
         d="m 0,0 609.449,0 0,841.89 L 0,841.89 0,0 z"
         id="path3950" />
    </clipPath>
    <clipPath
       clipPathUnits="userSpaceOnUse"
       id="clipPath4197">
      <path
         inkscape:connector-curvature="0"
         d="m 29.291,668.844 145.57,0 0,105.62 -145.57,0 0,-105.62 z"
         id="path4199" />
    </clipPath>
    <linearGradient
       inkscape:collect="always"
       xlink:href="#linearGradient4476"
       id="linearGradient4482"
       x1="102.24764"
       y1="761.55396"
       x2="102.24764"
       y2="727.88068"
       gradientUnits="userSpaceOnUse"
       gradientTransform="translate(8.4852813,-7.3539105)" />
    <linearGradient
       id="linearGradient4476">
      <stop
         style="stop-color:#3c74bf;stop-opacity:1"
         offset="0"
         id="stop4478" />
      <stop
         id="stop4484"
         offset="0.5"
         style="stop-color:#7195d1;stop-opacity:1" />
      <stop
         style="stop-color:#acbfe4;stop-opacity:1"
         offset="1"
         id="stop4480" />
    </linearGradient>
  </defs>
  <sodipodi:namedview
     id="base"
     pagecolor="#ffffff"
     bordercolor="#666666"
     borderopacity="1.0"
     inkscape:pageopacity="0.0"
     inkscape:pageshadow="2"
     inkscape:zoom="0.55439453"
     inkscape:cx="646.3714"
     inkscape:cy="147.55756"
     inkscape:document-units="px"
     inkscape:current-layer="g15"
     showgrid="false"
     fit-margin-left="0.5"
     fit-margin-bottom="0.5"
     fit-margin-top="0.5"
     fit-margin-right="0.5"
     inkscape:window-width="1053"
     inkscape:window-height="1008"
     inkscape:window-x="854"
     inkscape:window-y="1"
     inkscape:window-maximized="0" />
  <metadata
     id="metadata3629">
    <rdf:RDF>
      <cc:Work
         rdf:about="">
        <dc:format>image/svg+xml</dc:format>
        <dc:type
           rdf:resource="http://purl.org/dc/dcmitype/StillImage" />
        <dc:title></dc:title>
      </cc:Work>
    </rdf:RDF>
  </metadata>
  <g
     inkscape:label="Layer 1"
     inkscape:groupmode="layer"
     id="layer1"
     transform="translate(-675.81883,546.10909)">
    <g
       id="g5"
       transform="matrix(8.8172992,0,0,8.8172992,676.31883,-532.84442)">
      <g
         id="g7"
         transform="matrix(1.0490741,0,0,1.0490741,0,-1.4476852)">
        <g
           id="g9">
          <path
             inkscape:connector-curvature="0"
             class="st0"
             d="m 16.4,2.2 c 0,1.2 -1,2.2 -2.2,2.2 C 13,4.4 12,3.4 12,2.2 12,1 13,0 14.2,0 c 1.2,0 2.2,1 2.2,2.2 z m -2.2,4 c -1.3,0 -2.3,1 -2.3,2.3 0,1.3 1,2.3 2.3,2.3 1.3,0 2.3,-1 2.3,-2.3 0,-1.3 -1,-2.3 -2.3,-2.3 z m 0,6.2 c -1.3,0 -2.4,1.1 -2.4,2.4 0,1.3 1.1,2.4 2.4,2.4 1.3,0 2.4,-1.1 2.4,-2.4 0,-1.3 -1.1,-2.4 -2.4,-2.4 z m 0,6.3 c -1.3,0 -2.3,1 -2.3,2.3 0,1.3 1,2.3 2.3,2.3 1.3,0 2.3,-1 2.3,-2.3 0,-1.2 -1,-2.3 -2.3,-2.3 z m 0,6.4 c -1.2,0 -2.2,1 -2.2,2.2 0,1.2 1,2.2 2.2,2.2 1.2,0 2.2,-1 2.2,-2.2 0,-1.2 -1,-2.2 -2.2,-2.2 z M 20.3,5.9 c -1.4,0 -2.6,1.2 -2.6,2.6 0,1.4 1.2,2.6 2.6,2.6 1.4,0 2.6,-1.2 2.6,-2.6 0,-1.4 -1.2,-2.6 -2.6,-2.6 z m 0,6.2 c -1.5,0 -2.7,1.2 -2.7,2.7 0,1.5 1.2,2.7 2.7,2.7 1.5,0 2.7,-1.2 2.7,-2.7 0,-1.5 -1.2,-2.7 -2.7,-2.7 z m 0,6.3 c -1.4,0 -2.6,1.2 -2.6,2.6 0,1.4 1.2,2.6 2.6,2.6 1.4,0 2.6,-1.2 2.6,-2.6 0,-1.4 -1.2,-2.6 -2.6,-2.6 z m 6.3,-6.6 c -1.6,0 -3,1.3 -3,3 0,1.6 1.3,3 3,3 1.7,0 3,-1.3 3,-3 -0.1,-1.7 -1.4,-3 -3,-3 z M 8,6.5 c -1.1,0 -2,0.9 -2,2 0,1.1 0.9,2 2,2 1.1,0 2,-0.9 2,-2 0,-1.1 -0.9,-2 -2,-2 z m 0,6.2 c -1.2,0 -2.1,0.9 -2.1,2.1 0,1.2 0.9,2.1 2.1,2.1 1.2,0 2.1,-0.9 2.1,-2.1 0,-1.2 -0.9,-2.1 -2.1,-2.1 z M 8,19 c -1.1,0 -2,0.9 -2,2 0,1.1 0.9,2 2,2 1.1,0 2,-0.9 2,-2 0,-1.1 -0.9,-2 -2,-2 z M 1.8,13 c -1,0 -1.8,0.8 -1.8,1.8 0,1 0.8,1.8 1.8,1.8 1,0 1.8,-0.8 1.8,-1.8 0,-1 -0.8,-1.8 -1.8,-1.8 z"
             id="path11"
             style="fill:#00b0b9;fill-opacity:1" />
        </g>
      </g>
      <g
         id="g13"
         style="fill:#002a3a;fill-opacity:1">
        <g
           id="g15"
           style="fill:#002a3a;fill-opacity:1">
          <path
             inkscape:connector-curvature="0"
             class="st1"
             d="m 54.761667,9.9872222 c -0.209815,0 -0.41963,0.2098148 -0.41963,0.4196298 v 16.470463 c 0,0.209815 0.209815,0.419629 0.41963,0.419629 h 1.99324 c 0.209815,0 0.41963,-0.209814 0.41963,-0.419629 V 10.406852 c 0,-0.209815 -0.209815,-0.4196298 -0.41963,-0.4196298 h -1.99324 z"
             id="path17"
             style="fill:#002a3a;fill-opacity:1" />
          <g
             id="g19"
             style="fill:#002a3a;fill-opacity:1"
             transform="matrix(1.0490741,0,0,1.0490741,0,-1.4476852)">
            <g
               id="g21"
               style="fill:#002a3a;fill-opacity:1">
              <path
                 inkscape:connector-curvature="0"
                 class="st1"
                 d="m 53.2,4.3 c -1,0 -1.8,0.8 -1.8,1.8 0,1 0.8,1.8 1.8,1.8 1,0 1.8,-0.8 1.8,-1.8 0,-1 -0.8,-1.8 -1.8,-1.8 z"
                 id="path23"
                 style="fill:#002a3a;fill-opacity:1" />
            </g>
          </g>
          <path
             inkscape:connector-curvature="0"
             class="st1"
             d="m 97.039352,9.9872222 c -0.209815,0 -0.41963,0.2098148 -0.41963,0.4196298 v 16.470463 c 0,0.209815 0.209815,0.419629 0.41963,0.419629 h 1.993241 c 0.209814,0 0.419629,-0.209814 0.419629,-0.419629 V 10.406852 c 0,-0.209815 -0.209815,-0.4196298 -0.419629,-0.4196298 h -1.993241 z"
             id="path25"
             style="fill:#002a3a;fill-opacity:1" />
          <g
             id="g27"
             style="fill:#002a3a;fill-opacity:1"
             transform="matrix(1.0490741,0,0,1.0490741,0,-1.4476852)">
            <g
               id="g29"
               style="fill:#002a3a;fill-opacity:1">
              <path
                 inkscape:connector-curvature="0"
                 class="st1"
                 d="m 93.4,4.3 c -1,0 -1.8,0.8 -1.8,1.8 0,1 0.8,1.8 1.8,1.8 1,0 1.8,-0.8 1.8,-1.8 0,-1 -0.8,-1.8 -1.8,-1.8 z"
                 id="path31"
                 style="fill:#002a3a;fill-opacity:1" />
            </g>
          </g>
          <path
             inkscape:connector-curvature="0"
             class="st1"
             d="m 71.127222,12.714815 c 0.209815,0 0.41963,-0.209815 0.41963,-0.41963 v -1.993241 c 0,-0.209814 -0.209815,-0.4196292 -0.41963,-0.4196292 H 66.930926 V 3.5878704 c 0,-0.2098149 -0.209815,-0.4196297 -0.41963,-0.4196297 h -1.99324 c -0.209815,0 -0.41963,0.2098148 -0.41963,0.4196297 v 6.2944444 h -2.098148 c -0.209815,0 -0.41963,0.2098152 -0.41963,0.4196292 v 1.993241 c 0,0.209815 0.209815,0.41963 0.41963,0.41963 h 2.098148 v 9.546574 c 0,2.937407 1.993241,4.825741 4.825741,4.825741 h 2.098148 c 0.209815,0 0.419629,-0.209815 0.419629,-0.41963 v -1.993241 c 0,-0.209815 -0.209814,-0.419629 -0.419629,-0.419629 h -1.783426 c -1.363796,0 -2.307963,-0.944167 -2.307963,-2.412871 v -9.231852 h 4.196296 z"
             id="path37"
             style="fill:#002a3a;fill-opacity:1" />
          <path
             inkscape:connector-curvature="0"
             class="st1"
             d="m 112.88037,12.714815 c 0.20982,0 0.41963,-0.209815 0.41963,-0.41963 v -1.993241 c 0,-0.209814 -0.20981,-0.4196292 -0.41963,-0.4196292 h -4.1963 V 3.5878704 c 0,-0.2098149 -0.20981,-0.4196297 -0.41963,-0.4196297 h -1.99324 c -0.20981,0 -0.41963,0.2098148 -0.41963,0.4196297 v 6.2944444 h -2.09814 c -0.20982,0 -0.41963,0.2098152 -0.41963,0.4196292 v 1.993241 c 0,0.209815 0.20981,0.41963 0.41963,0.41963 h 2.09814 v 9.546574 c 0,2.937407 1.99324,4.825741 4.82574,4.825741 h 2.09815 c 0.20982,0 0.41963,-0.209815 0.41963,-0.41963 v -1.993241 c 0,-0.209815 -0.20981,-0.419629 -0.41963,-0.419629 h -1.88833 c -1.3638,0 -2.30796,-0.944167 -2.30796,-2.412871 v -9.231852 h 4.3012 z"
             id="path39"
             style="fill:#002a3a;fill-opacity:1" />
          <path
             inkscape:connector-curvature="0"
             class="st1"
             d="m 42.277685,12.714815 v 14.057592 c 0,0.209815 0.209815,0.41963 0.41963,0.41963 h 1.993241 c 0.209814,0 0.419629,-0.209815 0.419629,-0.41963 V 12.714815 h 4.615926 c 0.209815,0 0.41963,-0.209815 0.41963,-0.41963 v -1.993241 c 0,-0.209814 -0.209815,-0.4196292 -0.41963,-0.4196292 H 45.110185 V 6.2105555 c 0,-1.4687037 1.049074,-2.5177777 2.307963,-2.5177777 h 2.307963 c 0.209815,0 0.41963,-0.2098149 0.41963,-0.4196297 V 1.2799074 c 0,-0.2098148 -0.209815,-0.41962964 -0.41963,-0.41962964 h -2.203055 c -2.937408,0 -5.245371,2.41287034 -5.245371,5.24537034 v 3.7766667 h -2.098148 c -0.209815,0 -0.41963,0.2098152 -0.41963,0.4196292 v 1.993241 c 0,0.209815 0.209815,0.41963 0.41963,0.41963 h 2.098148 z"
             id="path41"
             style="fill:#002a3a;fill-opacity:1" />
        </g>
        <path
           inkscape:connector-curvature="0"
           class="st1"
           d="m 90.325278,11.980463 c -1.573611,-1.678519 -3.776667,-2.6226852 -6.08463,-2.6226852 -2.203055,0 -4.406111,0.9441662 -5.769907,2.3079632 V 1.175 c 0,-0.20981483 -0.209815,-0.41962965 -0.41963,-0.41962965 H 76.05787 c -0.209814,0 -0.419629,0.20981482 -0.419629,0.41962965 v 17.309722 c 0,6.399352 4.301203,9.231852 8.4975,9.231852 4.196296,0 8.4975,-2.8325 8.4975,-9.231852 0.104907,-2.517778 -0.734352,-4.825741 -2.307963,-6.504259 z m -6.08463,13.113426 c -4.196296,0 -5.769907,-3.357037 -5.769907,-6.504259 0,-3.881574 2.307963,-6.399352 5.769907,-6.399352 3.461945,0 5.769908,2.622685 5.769908,6.399352 -0.104908,3.147222 -1.573611,6.504259 -5.769908,6.504259 z"
           id="path43"
           style="fill:#002a3a;fill-opacity:1" />
      </g>
    </g>
  </g>
</svg>
