<?xml version="1.0" encoding="utf-8"?>
<!-- Generator: Adobe Illustrator 21.0.0, SVG Export Plug-In . SVG Version: 6.00 Build 0)  -->
<svg version="1.1" id="Layer_1" xmlns="http://www.w3.org/2000/svg" xmlns:xlink="http://www.w3.org/1999/xlink" x="0px" y="0px"
	 viewBox="0 0 512 512" style="enable-background:new 0 0 512 512;" xml:space="preserve">
<style type="text/css">
	.st0{fill:#DD4B39;}
	.st1{fill:#FFFFFF;}
</style>
<circle class="st0" cx="256" cy="256" r="205"/>
<g>
	<path class="st1" d="M209.1,273.1h52c-6.8,23.3-27.1,39.8-52,39.8c-31.4,0-56.9-25.5-56.9-56.9c0-31.4,25.5-56.9,56.9-56.9
		c13.5,0,26.7,4.8,37,13.6l22.4-26.2c-16.5-14.1-37.6-21.9-59.3-21.9c-50.4,0-91.4,41-91.4,91.4s41,91.4,91.4,91.4
		c49.8,0,88.8-40.1,88.8-91.4v-13.2h-88.9L209.1,273.1L209.1,273.1z M368.8,242.9v-25.3h-26.2v25.3h-25.3v26.2h25.3v25.4h26.2v-25.4
		h25.4v-26.2H368.8z"/>
</g>
</svg>
