<?xml version="1.0" encoding="utf-8"?>
<!-- Generator: Adobe Illustrator 21.0.0, SVG Export Plug-In . SVG Version: 6.00 Build 0)  -->
<svg version="1.1"
	 id="Layer_1" xmlns:cc="http://creativecommons.org/ns#" xmlns:dc="http://purl.org/dc/elements/1.1/" xmlns:rdf="http://www.w3.org/1999/02/22-rdf-syntax-ns#"
	 xmlns="http://www.w3.org/2000/svg" xmlns:xlink="http://www.w3.org/1999/xlink" x="0px" y="0px" viewBox="0 0 334.9 200"
	 style="enable-background:new 0 0 334.9 200;" xml:space="preserve">
<style type="text/css">
	.st0{fill:#01928C;}
	.st1{fill:#231F20;}
</style>
<g transform="translate(-87.132 -220.98)">
	<g transform="matrix(2.3628 0 0 -2.3628 -69.647 2206.2)">
		<path class="st0" d="M79.5,763.8h1.6v68.6h-1.6V763.8z"/>
		<g transform="translate(78.331 797.95)">
			<path class="st1" d="M11,0h1.8V-6h7.3V0h1.8v-13.8h-1.8v6.3h-7.3v-6.3H11C11-13.8,11,0,11,0z"/>
		</g>
		<g transform="translate(94.928 797.95)">
			<path class="st1" d="M7.9,0h2.5l4.4-11.6L19.1,0h2.5v-13.8h-1.7v11.5h0l-4.3-11.5H14L9.6-2.3h0v-11.5H7.9C7.9-13.8,7.9,0,7.9,0z"
				/>
		</g>
		<g transform="translate(121.74 797.95)">
			<path class="st1" d="M2.9,0h6.5c2.6,0,4.2-1.4,4.2-3.6c0-1.7-0.7-3-2.4-3.5v0c1.6-0.3,1.9-1.5,2.1-2.8c0.1-1.4,0-2.9,0.8-3.8H12
				c-0.5,0.6-0.2,2.1-0.5,3.4C11.3-9.1,11-7.9,9.2-7.9H4.7v-5.9H2.9C2.9-13.8,2.9,0,2.9,0z M8.6-6.4c1.7,0,3.2,0.4,3.2,2.5
				c0,1.4-0.7,2.4-2.5,2.4H4.7v-4.8H8.6z"/>
		</g>
		<g transform="translate(147.59 784.87)">
			<path class="st1" d="M-1.9,2.4C-2.4,0.2-4-1-6.2-1c-3.2,0-4.7,2.2-4.8,5.3c0,3,2,5.2,4.7,5.2c3.5,0,4.6-3.3,4.5-5.7h-7.5
				C-9.3,2-8.3,0.5-6.2,0.5c1.4,0,2.3,0.7,2.6,2C-3.6,2.4-1.9,2.4-1.9,2.4z M-3.5,5.2C-3.6,6.8-4.8,8-6.4,8c-1.7,0-2.8-1.3-2.9-2.8
				C-9.3,5.2-3.5,5.2-3.5,5.2z"/>
		</g>
		<g transform="translate(154.52 780.97)">
			<path class="st1" d="M-3.2,3.1H-5l-3.7,10h1.8L-4,4.8h0l2.7,8.3h1.7C0.4,13.2-3.2,3.1-3.2,3.1z"/>
		</g>
		<g transform="translate(170.32 784.87)">
			<path class="st1" d="M-6.2,2.4C-6.6,0.2-8.2-1-10.4-1c-3.2,0-4.7,2.2-4.8,5.3c0,3,2,5.2,4.7,5.2C-7,9.5-5.9,6.2-6,3.8h-7.5
				c-0.1-1.7,0.9-3.3,3.1-3.3c1.4,0,2.3,0.7,2.6,2C-7.8,2.4-6.2,2.4-6.2,2.4z M-7.7,5.2C-7.8,6.8-9,8-10.6,8c-1.7,0-2.7-1.3-2.9-2.8
				C-13.5,5.2-7.7,5.2-7.7,5.2z"/>
		</g>
		<g transform="translate(172.17 793.27)">
			<path class="st1" d="M-6.5,0.9h1.5v-1.6h0c0.7,1.2,1.8,1.8,3.3,1.8c2.6,0,3.4-1.5,3.4-3.7v-6.6H0.1v6.8c0,1.2-0.8,2-2,2
				c-2,0-3-1.3-3-3.1v-5.7h-1.6V0.9z"/>
		</g>
		<g transform="translate(194.91 780.97)">
			<path class="st1" d="M-10.7,3.1h-1.5v1.6h0c-0.7-1.2-1.8-1.8-3.3-1.8c-2.6,0-3.4,1.5-3.4,3.7v6.6h1.6V6.4c0-1.2,0.8-2,2-2
				c2,0,3,1.3,3,3.1v5.7h1.6C-10.7,13.2-10.7,3.1-10.7,3.1z"/>
		</g>
		<g transform="translate(207.89 784.87)">
			<path class="st1" d="M-13.1,2.4c-0.4-2.2-2-3.4-4.3-3.4c-3.2,0-4.7,2.2-4.8,5.3c0,3,2,5.2,4.7,5.2c3.5,0,4.6-3.3,4.5-5.7h-7.5
				c-0.1-1.7,0.9-3.3,3.1-3.3c1.4,0,2.3,0.7,2.6,2C-14.8,2.4-13.1,2.4-13.1,2.4z M-14.7,5.2C-14.8,6.8-16,8-17.6,8
				c-1.7,0-2.7-1.3-2.9-2.8C-20.5,5.2-14.7,5.2-14.7,5.2z"/>
		</g>
		<g transform="translate(87.372 758.09)">
			<path class="st1" d="M9.3,7.4c-0.8-1.3-2.4-2-3.9-2C1.6,5.4,1,8.1,1,9.2c0,2.2,1.5,3.3,3.2,4.2c-0.8,1.1-1.5,1.8-1.5,3.3
				c0,1.5,1.1,2.8,3.1,2.8c1.7,0,3.4-0.9,3.4-2.8c0-1.6-1.3-2.8-2.6-3.6l2.5-3c0.3,0.7,0.4,1.4,0.4,2.1h1.6
				c-0.1-1.6-0.3-2.2-0.9-3.4l2.7-3.1h-2.1C10.7,5.7,9.3,7.4,9.3,7.4z M5.2,12.4c-1.3-0.7-2.4-1.5-2.4-3.1c0-1.4,1.3-2.3,2.6-2.3
				c1.3,0,2.3,0.6,2.9,1.6C8.4,8.5,5.2,12.4,5.2,12.4z M7.6,16.6c0,0.8-0.6,1.5-1.6,1.5c-0.8,0-1.6-0.5-1.6-1.5
				c0-0.8,0.7-1.6,1.3-2.4C6.5,14.7,7.6,15.4,7.6,16.6"/>
		</g>
		<g transform="translate(111.4 767.84)">
			<path class="st1" d="M4.8,5.6c-0.4,2-2,2.9-3.9,2.9c-3.3,0-4.7-2.7-4.7-5.6c0-3.2,1.4-5.8,4.7-5.8c2.4,0,3.8,1.7,4,4h1.8
				c-0.3-3.4-2.5-5.5-6-5.5c-4.3,0-6.4,3.2-6.4,7.2c0,4,2.3,7.3,6.5,7.3c2.9,0,5.3-1.5,5.7-4.5C6.6,5.6,4.8,5.6,4.8,5.6z"/>
		</g>
		<g transform="translate(125.82 755.97)">
			<path class="st1" d="M2.1,7.8H0.6v1.6h0c-0.7-1.2-1.8-1.8-3.3-1.8c-2.6,0-3.4,1.5-3.4,3.7v6.6h1.6V11c0-1.2,0.8-2,2-2
				c2,0,3,1.3,3,3.1v5.7h1.6C2.1,17.8,2.1,7.8,2.1,7.8z"/>
		</g>
		<g transform="translate(129.61 759.85)">
			<path class="st1" d="M1.4,7.1c0.1-1.5,1.3-1.9,2.7-1.9c1,0,2.4,0.2,2.4,1.5c0,1.3-1.6,1.5-3.3,1.9C1.6,8.9,0,9.4,0,11.3
				c0,2,2,2.8,3.7,2.8c2.2,0,4-0.7,4.1-3.1H6.2c-0.1,1.3-1.2,1.7-2.3,1.7c-1,0-2.1-0.3-2.1-1.3c0-1.2,1.7-1.4,3.3-1.7
				c1.6-0.4,3.3-0.9,3.3-2.8C8.3,4.5,6,3.7,4,3.7c-2.2,0-4.1,0.9-4.2,3.4C-0.2,7.1,1.4,7.1,1.4,7.1z"/>
		</g>
		<g transform="translate(142.55 768.27)">
			<path class="st1" d="M-1,5.5h2V4.1h-2v-6.2c0-0.8,0.2-0.9,1.2-0.9H1v-1.5h-1.3c-1.7,0-2.4,0.3-2.4,2.2v6.4h-1.7v1.5h1.7v3H-1
				C-1,8.5-1,5.5-1,5.5z"/>
		</g>
		<g transform="translate(151.53 768.56)">
			<path class="st1" d="M-2.7,5.5c3.2,0,4.9-2.3,4.9-5.2C2.2-2.7,0.5-5-2.7-5s-4.9,2.3-4.9,5.2C-7.5,3.1-5.8,5.5-2.7,5.5 M-2.7-3.6
				c1.7,0,3.1,1.4,3.1,3.8C0.5,2.6-0.9,4-2.7,4c-1.7,0-3.1-1.4-3.1-3.8C-5.8-2.2-4.4-3.6-2.7-3.6"/>
		</g>
		<g transform="translate(159.33 768.27)">
			<path class="st1" d="M-4.1,5.5h1.5V4h0c0.7,1.1,1.9,1.7,3.2,1.7c1.2,0,2.3-0.5,2.8-1.7c0.7,1.1,1.9,1.7,3.1,1.7
				c2,0,3.3-0.8,3.3-2.9v-7.3H8.3v6.6c0,1.2-0.3,2.2-1.9,2.2c-1.6,0-2.6-1-2.6-2.6v-6.2H2.1v6.6c0,1.3-0.4,2.2-1.9,2.2
				c-2,0-2.7-1.8-2.7-2.6v-6.2h-1.6C-4.1-4.5-4.1,5.5-4.1,5.5z"/>
		</g>
		<g transform="translate(180.35 759.85)">
			<path class="st1" d="M-8,7.1C-8,5.6-6.7,5.1-5.3,5.1c1,0,2.4,0.2,2.4,1.5c0,1.3-1.6,1.5-3.3,1.9c-1.6,0.4-3.3,0.9-3.3,2.8
				c0,2,2,2.8,3.7,2.8c2.2,0,4-0.7,4.1-3.1h-1.6c-0.1,1.3-1.2,1.7-2.3,1.7c-1,0-2.1-0.3-2.1-1.3c0-1.2,1.7-1.4,3.3-1.7
				c1.6-0.4,3.3-0.9,3.3-2.8c0-2.4-2.2-3.2-4.3-3.2c-2.2,0-4.1,0.9-4.2,3.4C-9.7,7.1-8,7.1-8,7.1z"/>
		</g>
		<g transform="translate(103.46 821.65)">
			<path class="st1" d="M6.3-4.4c-0.2,0-0.5,0.1-0.7,0.1c0.2,0.4,0.3,0.7,0.3,0.7c0,0.1,0.2,0.5,0.3,0.8c0.1,0.3,0.1,0.7,0.1,0.8
				c0,0.8-0.3,1.5-0.8,2.1C5.1,0.5,4.5,0.8,3.7,0.8c-0.2,0-0.3,0-0.8-0.1c-0.4-0.1-0.6-0.2-1-0.3C1.3,0.3,1,0.2,0.1-0.3
				C0-0.3,0-0.4,0-0.5c0-0.1,0-0.1,0-0.1l0-3.4h-0.6v3.7c0,0,0,0.1,0,0.2c0,0.1,0.1,0.2,0.3,0.4c0.1,0.1,0.2,0.2,0.4,0.2
				C-0.1,0.6-0.2,0.8-0.2,1c0,0.3,0.2,0.5,0.5,0.5c0.3,0,0.5-0.2,0.5-0.5c0,0,0-0.1,0-0.1c0,0,0,0,0,0C1,0.9,1.1,1,1.2,1
				C1.1,1.1,1,1.3,1,1.5C1,1.7,1.2,2,1.5,2C1.8,2,2,1.7,2,1.5c0-0.1,0-0.2-0.1-0.2c0.2,0.1,0.4,0.1,0.4,0.1c0,0,0,0,0.1,0
				C2.3,1.4,2.2,1.6,2.2,1.8c0,0.3,0.2,0.5,0.5,0.5c0.3,0,0.5-0.2,0.5-0.5c0-0.1,0-0.2-0.1-0.3c0,0,0,0,0,0c0.2,0,0.4,0,0.6,0
				C3.6,1.6,3.6,1.7,3.6,1.8c0,0.3,0.2,0.5,0.5,0.5c0.3,0,0.5-0.2,0.5-0.5c0-0.2-0.1-0.3-0.2-0.4c0.2,0,0.4-0.1,0.6-0.2
				c0,0,0,0.1,0,0.1c0,0.3,0.2,0.5,0.5,0.5C5.8,1.9,6,1.7,6,1.4C6,1.2,5.8,1,5.6,0.9C5.7,0.8,5.9,0.7,6,0.5v0C6,0.8,6.3,1,6.5,1
				C6.8,1,7,0.8,7,0.5C7,0.3,6.8,0,6.5,0C6.5,0,6.4,0,6.4,0c0.1-0.1,0.2-0.3,0.3-0.5c0.1,0.1,0.2,0.2,0.4,0.2c0.3,0,0.5-0.2,0.5-0.5
				c0-0.3-0.2-0.5-0.5-0.5c-0.1,0-0.1,0-0.2,0C6.9-1.3,7-1.5,7-1.6c0.1,0,0.1,0,0.2,0c0.3,0,0.5-0.2,0.5-0.5c0-0.3-0.2-0.5-0.5-0.5
				C7.1-2.6,7-2.6,7-2.5c0-0.1,0-0.1,0-0.2c0-0.1,0-0.1,0-0.2c0.3,0,0.4-0.2,0.4-0.5c0-0.3-0.2-0.5-0.5-0.5c-0.1,0-0.2,0-0.3,0.1
				C6.5-4,6.4-4.2,6.3-4.4"/>
		</g>
		<g transform="translate(94.17 822.14)">
			<path class="st1" d="M8-4.5C7.7-4.5,7.5-4.3,7.5-4c0,0.3,0.2,0.5,0.5,0.5h0h0c0.3,0,0.5-0.2,0.5-0.5C8.5-4.3,8.3-4.5,8-4.5
				C8-4.5,8-4.5,8-4.5z"/>
		</g>
		<g transform="translate(94.176 823.6)">
			<path class="st1" d="M8-4.8c0.3,0,0.5,0.2,0.5,0.5c0,0.3-0.2,0.5-0.5,0.5h0h0c-0.3,0-0.5-0.2-0.5-0.5C7.5-4.6,7.7-4.8,8-4.8
				C8-4.8,8-4.8,8-4.8z"/>
		</g>
		<g transform="translate(94.172 825.01)">
			<path class="st1" d="M8-5C7.8-5,7.6-4.8,7.6-4.6c0,0.2,0.2,0.4,0.4,0.4h0c0.2,0,0.4-0.2,0.4-0.4C8.5-4.8,8.3-5,8-5C8-5,8-5,8-5z"
				/>
		</g>
		<g transform="translate(94.175 827.58)">
			<path class="st1" d="M8-5.5c0.2,0,0.4,0.2,0.4,0.4c0,0.2-0.2,0.4-0.4,0.4h0c-0.2,0-0.4-0.2-0.4-0.4C7.6-5.3,7.8-5.5,8-5.5
				C8-5.5,8-5.5,8-5.5z"/>
		</g>
		<g transform="translate(94.172 826.33)">
			<path class="st1" d="M8-5.3c-0.2,0-0.4,0.2-0.4,0.4S7.8-4.4,8-4.4h0c0.2,0,0.4-0.2,0.4-0.4S8.2-5.3,8-5.3C8-5.3,8-5.3,8-5.3z"/>
		</g>
		<g transform="translate(95.989 834.62)">
			<path class="st1" d="M7.7-6.8C7.7-6.8,7.6-6.8,7.7-6.8c-0.2,0.1-0.2,0-0.2,0c-0.1-0.4-0.3-0.7-1-0.8c0,0.3,0.1,0.6,0.3,0.7
				C6.8-6.7,7-6.6,7.3-6.6c0,0,0,0,0.1,0c0,0,0,0,0,0.1c0,0,0,0.1,0,0.1c0,0,0,0-0.1,0H6.2H6.1h-1c0,0,0,0-0.1,0c0,0,0,0,0-0.1
				c0,0,0-0.1,0-0.1c0,0,0.1,0,0.1,0c0.3-0.1,0.5-0.2,0.6-0.3c0.1-0.2,0.2-0.4,0.3-0.7C5.2-7.6,5-7.2,4.9-6.8c0,0,0,0.1-0.1,0.1
				c-0.1,0-0.1,0-0.1-0.1l0,0v-2c0,0,0-0.1,0.1-0.1c0.1,0,0.1,0,0.1,0.1l0,0c0.2,0.4,0.5,0.7,1,0.8c0-0.3-0.1-0.6-0.3-0.8
				C5.5-9,5.3-9.1,5.1-9.2l0,0c0,0,0,0-0.1,0c0,0,0,0,0-0.1c0,0,0-0.1,0-0.1c0,0,0,0,0.1,0h1h0.1h1.1c0,0,0,0,0.1,0c0,0,0,0,0,0.1
				c0,0,0,0.1,0,0.1c0,0,0,0-0.1,0l0,0C7-9.1,6.8-9,6.7-8.9C6.6-8.7,6.5-8.5,6.4-8.1c0.5-0.1,0.8-0.3,1-0.8l0,0c0,0,0-0.1,0.1-0.1
				c0.1,0,0.1,0,0.1,0.1L7.7-6.8C7.7-6.8,7.7-6.8,7.7-6.8z"/>
		</g>
		<g transform="translate(94.176 828.7)">
			<path class="st1" d="M8-5.7c0.6,0,1.1,0.5,1.1,1.1S8.6-3.6,8-3.6h0C7.4-3.6,6.9-4,6.9-4.6S7.4-5.7,8-5.7C8-5.7,8-5.7,8-5.7z"/>
		</g>
		<g transform="translate(84.57 822.41)">
			<path class="st1" d="M9.8-4.6C9.7-4.6,9.6-4.6,9.5-4.6C9.2-4.6,9-4.4,9-4.1c0,0.3,0.2,0.5,0.4,0.5c0,0,0,0.1,0,0.2
				c0,0.1,0,0.1,0,0.2c-0.1,0-0.1-0.1-0.2-0.1c-0.3,0-0.5,0.2-0.5,0.5c0,0.3,0.2,0.5,0.5,0.5c0.1,0,0.1,0,0.2,0c0,0.1,0,0.3,0.1,0.4
				C9.4-2,9.3-2,9.3-2C9-2,8.7-1.7,8.7-1.5c0,0.3,0.2,0.5,0.5,0.5c0.2,0,0.3-0.1,0.4-0.2C9.8-1,9.8-0.9,9.9-0.7c0,0-0.1,0-0.1,0
				c-0.3,0-0.5,0.2-0.5,0.5c0,0.3,0.2,0.5,0.5,0.5c0.3,0,0.5-0.2,0.5-0.5v0c0.1,0.1,0.3,0.3,0.4,0.4c-0.2,0-0.4,0.2-0.4,0.5
				c0,0.3,0.2,0.5,0.5,0.5c0.3,0,0.5-0.2,0.5-0.5c0-0.1,0-0.1,0-0.1c0.2,0.1,0.4,0.1,0.6,0.2c-0.1,0.1-0.2,0.2-0.2,0.4
				c0,0.3,0.2,0.5,0.5,0.5c0.3,0,0.5-0.2,0.5-0.5c0-0.1,0-0.2-0.1-0.3c0.2,0,0.4,0,0.6,0c0,0,0,0,0,0c0,0.1-0.1,0.2-0.1,0.3
				c0,0.3,0.2,0.5,0.5,0.5c0.3,0,0.5-0.2,0.5-0.5c0-0.2-0.1-0.3-0.2-0.4c0,0,0.1,0,0.1,0c0,0,0.2,0,0.4-0.1c0,0.1-0.1,0.2-0.1,0.2
				c0,0.3,0.2,0.5,0.5,0.5c0.3,0,0.5-0.2,0.5-0.5c0-0.2-0.1-0.4-0.3-0.4c0.1,0,0.2-0.1,0.4-0.1c0,0,0,0,0,0c0,0,0,0.1,0,0.1
				c0,0.3,0.2,0.5,0.5,0.5c0.3,0,0.5-0.2,0.5-0.5c0-0.2-0.1-0.3-0.2-0.4c0.1-0.1,0.2-0.1,0.4-0.2c0.2-0.1,0.3-0.2,0.3-0.4
				C17-0.9,17-1,17-1v-3.7h-0.6l0,3.4c0,0,0,0,0,0.1c0,0.1-0.1,0.1-0.1,0.2c-0.9,0.4-1.2,0.5-1.8,0.7c-0.4,0.1-0.6,0.2-1,0.3
				C13,0,12.8,0.1,12.6,0.1c-0.8,0-1.4-0.3-1.9-0.9C10.3-1.3,10-2.1,10-2.9c0-0.1,0-0.5,0.1-0.8c0.1-0.3,0.3-0.7,0.3-0.8
				c0,0,0.1-0.2,0.3-0.7c-0.2,0-0.5-0.1-0.7-0.1C9.9-4.9,9.9-4.7,9.8-4.6"/>
		</g>
		<g transform="translate(104.02 821.15)">
			<path class="st1" d="M6.2-4.3C6.1-4.3,6-4.2,5.9-4.2c0,0-1,0.1-1.1,0.1c0,0-0.1,0-0.1-0.1c0-0.1,0-0.1,0.1-0.1l0,0
				C5.3-4.5,5.6-5,5.6-5.5C4.8-5.4,4.6-5,4.6-4.4c0,0,0,0.1-0.1,0.1c-0.1,0-0.1,0-0.1-0.1l0,0L4.1-6.8v0c0,0,0-0.1,0.1-0.1
				c0.1,0,0.1,0,0.1,0.1C4.5-6.4,5-6,5.5-6C5.4-6.6,5-7.1,4.4-7.2l0,0C4-7.2,3.6-7.1,3.1-7.1C2.7-7,2.4-6.7,2.3-6.2
				c0,0.1,0,0.1,0,0.2c0.1,0.3,0.3,0.5,0.5,0.4C3.1-5.7,3.2-6,3.1-6.3c0-0.1-0.1-0.2-0.2-0.3c0.2,0,0.5,0.1,0.6,0.3
				c0.3,0.4,0.3,1-0.2,1.3C3-4.8,2.6-5,2.3-5.4c0.1,0.6,0.5,1.1,0.5,1.6c0.1,0.7-0.2,1.4-0.6,1.6C1.9-2.3,1.5-3,1.5-3.6
				c0-0.5,0.3-1.1,0.3-1.7c-0.3,0.4-0.6,0.7-1,0.6C0.4-5,0.3-5.6,0.5-6c0.1-0.3,0.3-0.4,0.6-0.4C1-6.4,1-6.3,0.9-6.1
				c-0.1,0.3,0,0.5,0.2,0.6C1.4-5.5,1.6-5.7,1.7-6c0-0.1,0-0.2,0-0.3v0C1.5-6.7,1.1-6.8,0.7-6.9c-0.4,0-0.8,0-1.3,0l0,0
				c-0.6,0.1-0.9,0.5-1,1.2C-1-5.8-0.6-6.1-0.4-6.5c0,0,0-0.1,0.1-0.1c0.1,0,0.1,0.1,0.1,0.1v2.3v0c0,0,0,0.1-0.1,0.1
				c-0.1,0-0.1,0-0.1-0.1v0l0,0c-0.1-0.4-0.3-0.8-1.2-0.9c0.1,0.8,0.4,1.1,1,1.2c0,0,0,0,0.1,0c0,0,0,0,0,0.1v0c0,0,0,0.1,0,0.1
				c0,0,0,0-0.1,0h-1.2h-0.1h-1.2c0,0,0,0-0.1,0c0,0,0,0,0-0.1v0c0,0,0-0.1,0-0.1c0,0,0,0,0.1,0c0.5-0.1,0.9-0.4,1-1.2
				c-0.8,0.1-1,0.5-1.2,0.9l0,0v0c0,0,0,0.1-0.1,0.1c-0.1,0-0.1,0-0.1-0.1v0v-2.3c0,0,0-0.1,0.1-0.1c0.1,0,0.1,0,0.1,0.1
				c0.2,0.5,0.6,0.8,1.1,0.9c-0.1-0.7-0.4-1.1-1-1.2l0,0c-0.4,0-0.9,0-1.3,0c-0.4,0.1-0.7,0.3-0.9,0.7v0c0,0.1,0,0.2,0,0.3
				c0.1,0.3,0.2,0.5,0.5,0.4c0.2-0.1,0.3-0.3,0.2-0.6c0-0.1-0.1-0.2-0.1-0.3c0.2,0,0.4,0.2,0.6,0.4C-4-5.6-4.1-5-4.6-4.8
				c-0.3,0.1-0.7-0.1-1-0.6c0,0.6,0.3,1.2,0.3,1.7c0,0.7-0.4,1.3-0.7,1.5c-0.4-0.2-0.6-0.9-0.6-1.6c0-0.5,0.4-1,0.5-1.6
				C-6.3-5-6.7-4.8-7-5c-0.4-0.3-0.5-0.9-0.2-1.3C-7-6.5-6.8-6.6-6.6-6.6c-0.1,0.1-0.1,0.2-0.2,0.3C-6.8-6-6.8-5.7-6.6-5.7
				C-6.4-5.6-6.2-5.8-6.1-6c0-0.1,0-0.1,0-0.2C-6.1-6.7-6.4-7-6.8-7.1c-0.4,0-0.8-0.1-1.3-0.1l0,0c-0.6,0.2-1,0.6-1.1,1.2
				c0.6,0,1.1-0.3,1.3-0.8c0,0,0.1-0.1,0.1-0.1c0.1,0,0.1,0.1,0.1,0.1v0L-8-4.4l0,0c0,0,0,0.1-0.1,0.1c-0.1,0-0.1,0-0.1-0.1
				c-0.1-0.6-0.3-1-1.1-1.1C-9.3-5-9-4.5-8.5-4.2l0,0c0,0,0.1,0,0.1,0.1C-8.4-4.1-8.5-4-8.5-4c-0.1,0-1.1-0.1-1.1-0.1
				c-0.1,0-0.2-0.1-0.2-0.1c-0.1-0.1-0.1-0.2-0.1-0.3c0-0.2,0.4-2.5,0.4-2.8c0,0,0-0.2,0-0.3c0-0.1,0.1-0.1,0.1-0.1s0.5-0.3,0.6-0.4
				c0.1-0.1,0-0.2,0-0.2L-9.2-9c0,0-0.1-0.1-0.1-0.1c0,0,0-0.1,0-0.1c0-0.1,0-0.1,0.1-0.2l7.3,0h0.2l7.2,0c0.1,0,0.1,0.1,0.1,0.2
				c0,0,0,0.1,0,0.1c0,0,0,0-0.1,0.1L5.1-8.4c0,0,0,0.1,0,0.2c0.1,0.1,0.6,0.4,0.6,0.4s0.1,0.1,0.1,0.1c0,0.1,0,0.3,0,0.3
				c0,0.2,0.4,2.6,0.4,2.8C6.2-4.5,6.2-4.4,6.2-4.3 M-4.8-8.4l-1.6-0.1c-0.2,0-0.3,0.1-0.3,0.3l0,0.2c0,0.2,0.1,0.3,0.3,0.3l1.6,0.1
				c0.2,0,0.3-0.1,0.3-0.3l0-0.2C-4.5-8.3-4.6-8.4-4.8-8.4 M-1.2-8l-0.6-0.6c0,0,0,0-0.1,0h0c0,0-0.1,0-0.1,0L-2.5-8
				c0,0,0,0.1,0,0.2l0.6,0.6c0,0,0,0,0.1,0h0c0,0,0.1,0,0.1,0l0.6-0.6C-1.1-7.9-1.1-7.9-1.2-8 M3-8.2c0-0.2-0.2-0.3-0.3-0.3L1.1-8.4
				c-0.2,0-0.3,0.1-0.3,0.3l0,0.2c0,0.2,0.1,0.3,0.3,0.3l1.6-0.1C2.9-7.7,3-7.8,3-8C3-8,3-8.2,3-8.2z"/>
		</g>
		<g transform="translate(94.173 840.21)">
			<path class="st1" d="M8-7.9c7.6,0,13.8-6.2,13.8-13.8c0-7.6-6.2-13.8-13.8-13.8S-5.8-29.3-5.8-21.7C-5.8-14.1,0.4-7.9,8-7.9
				 M8-33.9c6.7,0,12.2,5.5,12.2,12.2C20.2-15,14.7-9.5,8-9.5S-4.2-15-4.2-21.7C-4.2-28.4,1.3-33.9,8-33.9"/>
		</g>
	</g>
</g>
</svg>
