<?xml version="1.0" encoding="utf-8"?>
<!-- Generator: Adobe Illustrator 21.0.0, SVG Export Plug-In . SVG Version: 6.00 Build 0)  -->
<svg version="1.1" id="Layer_1" xmlns="http://www.w3.org/2000/svg" xmlns:xlink="http://www.w3.org/1999/xlink" x="0px" y="0px"
	 viewBox="0 0 20 20" style="enable-background:new 0 0 20 20;" xml:space="preserve">
<style type="text/css">
	.st0{fill:#FFFFFF;}
	.st1{fill:#005F89;}
</style>
<g>
	<path id="a" class="st0" d="M2,10V2h16v16H2V10z"/>
</g>
<title>56150D5D-65EF-4C31-9B4B-8AA38B2EA7EF</title>
<g>
	<path class="st1" d="M4.8,6C4.2,6,3.6,5.4,3.6,4.8s0.6-1.2,1.2-1.2S6,4.2,6,4.8S5.4,6,4.8,6 M17.5,9.7l-7.2-7.2
		C10.1,2.2,9.7,2,9.2,2H3.6C2.7,2,2,2.7,2,3.6v5.6c0,0.5,0.2,0.9,0.5,1.1l7.2,7.2c0.2,0.3,0.6,0.5,1.1,0.5s0.9-0.2,1.1-0.5l5.6-5.6
		c0.3-0.3,0.5-0.7,0.5-1.1C18,10.4,17.8,9.9,17.5,9.7"/>
</g>
</svg>
