<?xml version="1.0" encoding="utf-8"?>
<!-- Generator: Adobe Illustrator 20.1.0, SVG Export Plug-In . SVG Version: 6.00 Build 0)  -->
<svg version="1.1" id="Layer_1" xmlns="http://www.w3.org/2000/svg" xmlns:xlink="http://www.w3.org/1999/xlink" x="0px" y="0px"
	 viewBox="0 0 50 50" style="enable-background:new 0 0 50 50;" xml:space="preserve">
<style type="text/css">
	.st0{fill:#282828;}
	.st1{fill:#1D1D1B;}
</style>
<g>
	<g>
		<g>
			<path class="st0" d="M30.9,26.6l-1.1-0.3c-0.1,0-0.2,0-0.3,0.1c-0.1,0.1-0.2,0.2-0.2,0.3c-0.1,0.3-0.1,0.5-0.1,0.5
				c0,0.1-0.1,0.3-0.2,0.4c0,0-0.2,0.2-0.8,0.5c-0.5,0.3-0.9,0.6-1.2,0.8c-0.1,0.1-0.2,0.2-0.2,0.3c0-0.1,0-0.2-0.1-0.3
				c-0.1-0.6-0.4-1.1-0.8-1.5c-0.1-0.1-0.2-0.2-0.3-0.3c0,0,0,0,0,0l1-1c0.2-0.2,0.2-0.4,0-0.6L26,25c-0.2-0.2-0.4-0.2-0.6,0
				L24,26.4c-0.6-0.2-1-0.3-1.2-0.4c-0.2-0.1-0.4-0.2-0.5-0.3c-0.3-0.3-0.4-0.6-0.4-1c0-0.4,0.2-0.7,0.6-1.1
				c0.4-0.4,0.8-0.6,1.1-0.6c0.4,0,0.8,0.2,1.2,0.7c0.2,0.2,0.4,0.2,0.6,0l0.9-0.9c0.1-0.1,0.1-0.2,0.1-0.3c0-0.1,0-0.2-0.1-0.3
				c-0.8-0.8-1.7-1.2-2.5-1.2c-0.9,0-1.7,0.4-2.5,1.2c-0.8,0.8-1.3,1.7-1.3,2.7c0,0.9,0.3,1.7,0.9,2.3c0.2,0.2,0.3,0.3,0.5,0.4
				c0.2,0.1,0.3,0.2,0.5,0.3c0.1,0.1,0.3,0.1,0.6,0.2L22,28.4c-0.2,0.2-0.2,0.4,0,0.6l0.5,0.5c0.2,0.2,0.4,0.2,0.6,0l0.9-0.9
				c0.1,0,0.2,0.1,0.2,0.1c0.2,0.1,0.3,0.2,0.3,0.2c0.3,0.3,0.5,0.7,0.6,1.1c0.1,0.5,0.1,1,0,1.6c0,0.2,0.1,0.4,0.3,0.5l1.2,0.2
				c0.2,0,0.4-0.1,0.5-0.3c0.1-0.3,0.2-0.5,0.2-0.7c0.1-0.3,0.3-0.5,0.5-0.7c0.2-0.2,0.6-0.5,1.2-0.8c0.7-0.3,1.1-0.6,1.3-0.8
				c0.3-0.3,0.5-0.7,0.7-1.1c0.1-0.2,0.1-0.5,0.2-0.9C31.2,26.8,31.1,26.6,30.9,26.6 M34.5,19.5c0.7-0.7,0.7-1.8,0-2.5
				c-0.7-0.7-1.8-0.7-2.5,0c-0.7,0.7-0.7,1.8,0,2.5C32.7,20.2,33.8,20.2,34.5,19.5 M12.4,30.6c-1-1-1-2.6,0-3.6l13.1-13.1
				c0.4-0.4,1.1-0.7,1.7-0.7l8.5,0.2c1.4,0,2.5,1.2,2.5,2.5l0.2,8.5c0,0.6-0.3,1.3-0.7,1.7L24.6,39.1c-1,1-2.6,1-3.6,0L12.4,30.6z"
				/>
		</g>
		<g>
			<g>
				<g>
					<path class="st1" d="M25,49.8C11.4,49.8,0.2,38.6,0.2,25C0.2,11.4,11.4,0.2,25,0.2c13.6,0,24.8,11.1,24.8,24.8
						C49.8,38.6,38.6,49.8,25,49.8z M25,0.8C11.6,0.8,0.8,11.6,0.8,25c0,13.4,10.9,24.2,24.2,24.2c13.4,0,24.2-10.9,24.2-24.2
						C49.2,11.6,38.4,0.8,25,0.8z"/>
				</g>
			</g>
		</g>
	</g>
</g>
</svg>
