<?xml version="1.0" encoding="utf-8"?>
<!-- Generator: Adobe Illustrator 20.1.0, SVG Export Plug-In . SVG Version: 6.00 Build 0)  -->
<svg version="1.1" id="Layer_1" xmlns="http://www.w3.org/2000/svg" xmlns:xlink="http://www.w3.org/1999/xlink" x="0px" y="0px"
	 viewBox="0 0 50 50" style="enable-background:new 0 0 50 50;" xml:space="preserve">
<style type="text/css">
	.st0{clip-path:url(#SVGID_2_);}
	.st1{clip-path:url(#SVGID_4_);}
	.st2{clip-path:url(#SVGID_6_);fill:#006089;}
</style>
<g>
	<g>
		<defs>
			<rect id="SVGID_1_" x="0.5" y="0.5" width="49" height="49"/>
		</defs>
		<clipPath id="SVGID_2_">
			<use xlink:href="#SVGID_1_"  style="overflow:visible;"/>
		</clipPath>
		<g class="st0">
			<g>
				<defs>
					<rect id="SVGID_3_" x="0.5" y="0.5" width="49" height="49"/>
				</defs>
				<clipPath id="SVGID_4_">
					<use xlink:href="#SVGID_3_"  style="overflow:visible;"/>
				</clipPath>
				<g class="st1">
					<g>
						<g>
							<defs>
								<rect id="SVGID_5_" x="-8.5" y="-6.5" width="67" height="57"/>
							</defs>
							<clipPath id="SVGID_6_">
								<use xlink:href="#SVGID_5_"  style="overflow:visible;"/>
							</clipPath>
							<path class="st2" d="M31,27.9c0.1-0.2,0.1-0.5,0.2-0.9c0-0.2-0.1-0.4-0.3-0.4l-1.1-0.3c-0.1,0-0.2,0-0.3,0.1
								c-0.1,0.1-0.2,0.2-0.2,0.3c-0.1,0.3-0.1,0.5-0.1,0.5c0,0.1-0.1,0.3-0.2,0.4c0,0-0.2,0.2-0.8,0.5c-0.5,0.3-0.9,0.6-1.2,0.8
								c-0.1,0.1-0.2,0.2-0.2,0.3c0-0.1,0-0.2-0.1-0.3c-0.1-0.6-0.4-1.1-0.8-1.5c-0.1-0.1-0.2-0.2-0.3-0.3l0,0l1-1
								c0.2-0.2,0.2-0.4,0-0.6L26,25c-0.2-0.2-0.4-0.2-0.6,0L24,26.4c-0.6-0.2-1-0.3-1.2-0.4s-0.4-0.2-0.5-0.3
								c-0.3-0.3-0.4-0.6-0.4-1s0.2-0.7,0.6-1.1s0.8-0.6,1.1-0.6c0.4,0,0.8,0.2,1.2,0.7c0.2,0.2,0.4,0.2,0.6,0l0.9-0.9
								c0.1-0.1,0.1-0.2,0.1-0.3c0-0.1,0-0.2-0.1-0.3c-0.8-0.8-1.7-1.2-2.5-1.2c-0.9,0-1.7,0.4-2.5,1.2C20.5,23,20,23.9,20,24.9
								c0,0.9,0.3,1.7,0.9,2.3c0.2,0.2,0.3,0.3,0.5,0.4s0.3,0.2,0.5,0.3c0.1,0.1,0.3,0.1,0.6,0.2L22,28.4c-0.2,0.2-0.2,0.4,0,0.6
								l0.5,0.5c0.2,0.2,0.4,0.2,0.6,0l0.9-0.9c0.1,0,0.2,0.1,0.2,0.1c0.1,0.1,0.3,0.2,0.3,0.2c0.3,0.3,0.5,0.7,0.6,1.1
								c0.1,0.5,0.1,1,0,1.6c0,0.2,0.1,0.4,0.3,0.5l1.2,0.2c0.2,0,0.4-0.1,0.5-0.3c0.1-0.3,0.1-0.5,0.2-0.7c0.1-0.3,0.3-0.5,0.5-0.7
								s0.6-0.5,1.2-0.8c0.7-0.3,1.1-0.6,1.3-0.8C30.6,28.7,30.8,28.3,31,27.9 M34.5,19.5c0.7-0.7,0.7-1.8,0-2.5s-1.8-0.7-2.5,0
								s-0.7,1.8,0,2.5S33.8,20.2,34.5,19.5 M38.3,24.4c0,0.6-0.3,1.3-0.7,1.7l-13,13c-1,1-2.6,1-3.6,0l-8.6-8.6c-1-1-1-2.6,0-3.6
								l13.1-13.1c0.4-0.4,1.1-0.7,1.7-0.7l8.5,0.2c1.4,0,2.5,1.2,2.5,2.5L38.3,24.4z M49.5,25c0-13.5-11-24.5-24.5-24.5
								S0.5,11.5,0.5,25s11,24.5,24.5,24.5S49.5,38.5,49.5,25"/>
						</g>
					</g>
				</g>
			</g>
		</g>
	</g>
</g>
</svg>
