<?xml version="1.0" encoding="utf-8"?>
<!-- Generator: Adobe Illustrator 20.1.0, SVG Export Plug-In . SVG Version: 6.00 Build 0)  -->
<svg version="1.1" id="Layer_1" xmlns="http://www.w3.org/2000/svg" xmlns:xlink="http://www.w3.org/1999/xlink" x="0px" y="0px"
	 viewBox="0 0 50 50" style="enable-background:new 0 0 50 50;" xml:space="preserve">
<style type="text/css">
	.st0{clip-path:url(#SVGID_2_);fill:#006089;}
</style>
<g>
	<g>
		<defs>
			<rect id="SVGID_1_" x="0.5" y="0.5" width="49" height="49"/>
		</defs>
		<clipPath id="SVGID_2_">
			<use xlink:href="#SVGID_1_"  style="overflow:visible;"/>
		</clipPath>
		<path class="st0" d="M37.1,29.8c0,2.3-2.3,2.3-2.3,2.3h-11l-4.7,4.7h-0.4v-4.7h-1.2c-2.3,0-2.3-2.3-2.3-2.3V19.4
			c0-2.3,2.3-2.3,2.3-2.3h17.3c2.3,0,2.3,2.3,2.3,2.3S37.1,29.8,37.1,29.8z M49.5,25c0-13.5-11-24.5-24.5-24.5S0.5,11.5,0.5,25
			s11,24.5,24.5,24.5S49.5,38.5,49.5,25"/>
	</g>
</g>
</svg>
