<?xml version="1.0" encoding="utf-8"?>
<!-- Generator: Adobe Illustrator 20.1.0, SVG Export Plug-In . SVG Version: 6.00 Build 0)  -->
<svg version="1.1" id="Layer_1" xmlns="http://www.w3.org/2000/svg" xmlns:xlink="http://www.w3.org/1999/xlink" x="0px" y="0px"
	 viewBox="0 0 50 50" style="enable-background:new 0 0 50 50;" xml:space="preserve">
<style type="text/css">
	.st0{fill:#1D1D1B;}
	.st1{fill:#282828;}
</style>
<g>
	<g>
		<g>
			<g>
				<g>
					<path class="st0" d="M25,49.7C11.4,49.7,0.2,38.6,0.2,25S11.4,0.2,25,0.2c13.6,0,24.8,11.1,24.8,24.8S38.6,49.7,25,49.7z
						 M25,0.7C11.6,0.7,0.8,11.6,0.8,25S11.6,49.2,25,49.2c13.4,0,24.2-10.9,24.2-24.2S38.4,0.7,25,0.7z"/>
				</g>
			</g>
		</g>
		<g>
			<path class="st1" d="M37.1,29.8V19.4c0,0,0-2.3-2.3-2.3H17.4c0,0-2.3,0-2.3,2.3v10.4c0,0,0,2.3,2.3,2.3h1.2v4.7h0.4l4.7-4.7h11
				C34.8,32.1,37.1,32.1,37.1,29.8"/>
		</g>
	</g>
</g>
</svg>
