<svg width="13" height="17" viewBox="0 0 13 17" xmlns="http://www.w3.org/2000/svg" xmlns:xlink="http://www.w3.org/1999/xlink"><title>8566E1F6-88E1-4A60-8087-71AB1725E903</title><defs><path id="a" d="M0 0h24v24H0z"/></defs><g transform="translate(-10 -3)" fill="none" fill-rule="evenodd"><mask id="b" fill="#fff"><use xlink:href="#a"/></mask><path d="M16.5 15.952c.894 0 1.625-.728 1.625-1.619 0-.89-.731-1.619-1.625-1.619s-1.625.729-1.625 1.62c0 .89.731 1.618 1.625 1.618zm4.875-7.285h-.813v-1.62A4.057 4.057 0 0 0 16.5 3a4.057 4.057 0 0 0-4.063 4.048v1.619h-.812c-.894 0-1.625.728-1.625 1.619v8.095c0 .89.731 1.619 1.625 1.619h9.75c.894 0 1.625-.729 1.625-1.619v-8.095c0-.89-.731-1.62-1.625-1.62zm-7.394-1.62c0-1.384 1.13-2.509 2.519-2.509a2.516 2.516 0 0 1 2.519 2.51v1.619H13.98v-1.62zm7.394 11.334h-9.75v-8.095h9.75v8.095z" fill="#FFF" mask="url(#b)"/></g></svg>