<svg id="Layer_1" data-name="Layer 1" xmlns="http://www.w3.org/2000/svg" viewBox="0 0 155 155"><defs><style>.cls-1{fill:#259799;}.cls-2{fill:#fff;}</style></defs><title>photo</title><path id="a" class="cls-1" d="M77.5,155A77.5,77.5,0,1,0,0,77.5,77.5,77.5,0,0,0,77.5,155"/><path class="cls-2" d="M77.5,70.9a9.6,9.6,0,1,1-9.6,9.6,9.6,9.6,0,0,1,9.6-9.6"/><path class="cls-2" d="M77.5,95.5a15,15,0,1,1,15-15A15,15,0,0,1,77.5,95.5Zm-9-45L63,56.5H53.5a6,6,0,0,0-6,6v36a6,6,0,0,0,6,6h48a6,6,0,0,0,6-6v-36a6,6,0,0,0-6-6H92l-5.49-6Z"/><path class="cls-2" d="M114.5,33.5v12h-12v4h12v12h4v-12h12v-4h-12v-12Z"/></svg>