<?xml version="1.0" encoding="utf-8"?>
<!-- Generator: Adobe Illustrator 21.0.0, SVG Export Plug-In . SVG Version: 6.00 Build 0)  -->
<svg version="1.1" id="Layer_1" xmlns="http://www.w3.org/2000/svg" xmlns:xlink="http://www.w3.org/1999/xlink" x="0px" y="0px"
	 viewBox="0 0 26 26" style="enable-background:new 0 0 26 26;" xml:space="preserve">
<style type="text/css">
	.st0{fill:#FFFFFF;}
</style>
<g>
	<path class="st0" d="M17.1,8h1.7c0.5,0,0.8-0.3,0.8-0.8c0-0.1,0-0.1,0-0.2c-0.5-2.8-2.8-4.8-5.8-4.8C10.6,2.2,8,4.8,8,8
		c0,0.5,0.1,1.3,0.3,1.9c0.1,0.3,0.2,0.6,0.3,0.9c0.1,0.2-0.2,0.5-0.4,0.5H6.3c-0.5,0-0.8,0.3-0.8,0.8v1.7c0,0.5,0.3,0.8,0.8,0.8
		h2.8c0.2,0,0.4,0.2,0.4,0.3c0.1,0.6,0.2,1,0.2,1.3c0,1.8-2,3.3-4,4.7c-0.1,0.1-0.2,0.3-0.2,0.3c0,0.1,0,0.2,0.1,0.2L7,23.7
		c0.1,0.1,0.2,0.2,0.3,0.2c0.1,0,0.2,0,0.3-0.1c1-0.7,2.3-0.8,4.7-0.8c1.4,0,2.3,0.3,3,0.5c0.6,0.2,1.2,0.3,2,0.3
		c1.5,0,2.3-0.5,2.9-0.8l0.2-0.1c0.2-0.1,0.3-0.3,0.3-0.3c0-0.1,0-0.2-0.1-0.2l-1.2-2.3c-0.1-0.2-0.3-0.3-0.6-0.2l-0.3,0.2
		c-0.4,0.2-0.7,0.3-1.3,0.3c-0.2,0-0.6-0.1-1.1-0.3c-0.8-0.2-1.8-0.5-3.4-0.6c-0.3,0-0.5-0.2-0.3-0.6c0.4-0.8,0.7-1.8,0.7-2.7
		c0-0.3,0-0.8-0.1-1.2c0-0.3,0.2-0.5,0.4-0.5H18c0.5,0,0.8-0.3,0.8-0.8v-1.7c0-0.5-0.3-0.8-0.8-0.8h-5.6c-0.2,0-0.3-0.2-0.4-0.3
		c-0.2-0.7-0.4-1.5-0.6-2.1c-0.1-0.2-0.1-0.7-0.1-0.9c0-1.4,1.1-2.5,2.5-2.5c1.2,0,2.1,0.8,2.4,1.8C16.3,7.7,16.7,8,17.1,8z"/>
</g>
</svg>
