<?xml version="1.0" encoding="utf-8"?>
<!-- Generator: Adobe Illustrator 20.1.0, SVG Export Plug-In . SVG Version: 6.00 Build 0)  -->
<svg version="1.1" id="Layer_1" xmlns="http://www.w3.org/2000/svg" xmlns:xlink="http://www.w3.org/1999/xlink" x="0px" y="0px"
	 viewBox="0 0 50 50" style="enable-background:new 0 0 50 50;" xml:space="preserve">
<style type="text/css">
	.st0{fill:#282828;}
	.st1{clip-path:url(#SVGID_2_);}
</style>
<g>
	<g>
		<path class="st0" d="M25,50C11.2,50,0,38.8,0,25S11.2,0,25,0s25,11.2,25,25S38.8,50,25,50z M25,0.5C11.5,0.5,0.5,11.5,0.5,25
			c0,13.5,11,24.5,24.5,24.5c13.5,0,24.5-11,24.5-24.5C49.5,11.5,38.5,0.5,25,0.5z"/>
	</g>
</g>
<g>
	<defs>
		<path id="SVGID_1_" d="M31.7,15.1c-4,0.2-6.7-2.3-6.7-2.3s-2.6,2.5-6.7,2.3c-2.8-0.1-5.4-2.3-5.4-2.3s-0.7,14.9,1.9,20.1
			c3.5,6.7,10.2,9.4,10.2,9.4s6.7-2.6,10.2-9.4c2.7-5.1,1.9-20.1,1.9-20.1S34.5,15,31.7,15.1"/>
	</defs>
	<clipPath id="SVGID_2_">
		<use xlink:href="#SVGID_1_"  style="overflow:visible;"/>
	</clipPath>
	<g class="st1">
		<path class="st0" d="M25,19.6c-2.1,0-3.9,1.7-3.9,3.9c0,2.1,1.7,3.9,3.9,3.9s3.9-1.7,3.9-3.9C28.9,21.3,27.2,19.6,25,19.6
			 M18.4,32.2v12.7h13.2l0.1-0.1V32.2c0-1.5-1.2-2.6-2.6-2.6h-8C19.6,29.5,18.4,30.7,18.4,32.2"/>
	</g>
</g>
<g>
	<g>
		<path class="st0" d="M25,43l-0.3-0.1c-0.3-0.1-7-2.8-10.5-9.7c-2.7-5.2-2-19.8-2-20.4l0.1-1.5l1.2,1c0,0,2.5,2,5,2.1
			c3.7,0.1,6.1-2.1,6.1-2.1l0.5-0.5l0.5,0.5c0,0,2.5,2.3,6.1,2.1c2.5-0.1,5-2.1,5-2.1l1.2-1l0.1,1.5c0,0.6,0.7,15.2-2,20.4
			c-3.6,6.9-10.3,9.6-10.5,9.7L25,43z M13.6,14.2c-0.1,3.8-0.2,14.3,1.9,18.3c2.9,5.6,8.2,8.3,9.5,8.9c1.3-0.6,6.6-3.3,9.5-8.9
			c2.1-4,2-14.5,1.9-18.3c-1.1,0.7-2.8,1.6-4.7,1.6C28.4,16,26,14.5,25,13.7c-1,0.8-3.4,2.2-6.7,2.1C16.5,15.8,14.7,14.9,13.6,14.2z
			"/>
	</g>
</g>
</svg>
