<svg width="17" height="20" viewBox="0 0 17 20" xmlns="http://www.w3.org/2000/svg"><title>8D5E5ABA-06E6-4B05-B38B-2C9C12767701</title><g fill="none" fill-rule="evenodd"><path d="M4.3 15.107c.026-1.74 2.6-3.595 4.35-3.595 1.741 0 4.324 1.854 4.35 3.595-1.129 1.698-2.35 3.448-4.537 3.448S5.43 16.805 4.3 15.108zm6.975-7.582A2.621 2.621 0 0 1 8.65 10.15a2.621 2.621 0 0 1-2.625-2.625A2.621 2.621 0 0 1 8.65 4.9a2.621 2.621 0 0 1 2.625 2.625z" fill="#FFF"/><path d="M8.57 1l.283.143c.188.096.313.158.373.188a56.393 56.393 0 0 0 1.163.535c.012.002.105.04.28.116.175.076.31.132.403.168.094.036.23.085.409.148a432.536 432.536 0 0 0 .514.177 17.617 17.617 0 0 0 1.195.326l.313.07c.047.01.197.037.45.083a24.913 24.913 0 0 0 .942.158l.379.06a27.654 27.654 0 0 1 .723.14l-.012.738c-.01.49-.035 1.123-.076 1.9-.04.776-.072 1.319-.096 1.628-.023.31-.05.574-.08.794-.03.22-.066.43-.106.627-.04.197-.084.396-.131.597l-.126.528c-.037.151-.081.314-.132.489l-.09.315c-.01.037-.026.083-.046.139a7.46 7.46 0 0 0-.07.207c-.027.082-.07.2-.126.355a15.01 15.01 0 0 1-.636 1.48l-.184.324c-.106.186-.17.296-.192.33a13.61 13.61 0 0 0-.156.262 7.564 7.564 0 0 1-.278.444c-.052.08-.094.143-.126.188l-.11.157c-.043.061-.083.117-.122.168a1.926 1.926 0 0 0-.09.129 1.821 1.821 0 0 1-.096.133 5.09 5.09 0 0 0-.121.163c-.039.054-.081.11-.126.167l-.116.148c-.032.042-.1.12-.205.235a20.986 20.986 0 0 1-.741.775 3.663 3.663 0 0 1-.214.2 9.076 9.076 0 0 0-.248.212 62.339 62.339 0 0 1-.448.39 9.146 9.146 0 0 1-.343.286 24.128 24.128 0 0 1-.374.3c-.042.032-.082.06-.12.085l-.213.128a5.52 5.52 0 0 0-.201.123 1.797 1.797 0 0 1-.109.067c-.04.023-.082.05-.126.079l-.096.064c-.02.013-.064.036-.13.069a9.539 9.539 0 0 1-.44.197l-.055.02-.06-.015a.658.658 0 0 1-.132-.049 25.53 25.53 0 0 1-.237-.118 1.934 1.934 0 0 1-.191-.104 7.276 7.276 0 0 0-.492-.308 9.063 9.063 0 0 1-.212-.129 2.069 2.069 0 0 1-.121-.084 13.523 13.523 0 0 1-.358-.286l-.232-.192a15.431 15.431 0 0 1-.288-.247 9.03 9.03 0 0 0-.242-.207 9.038 9.038 0 0 1-.232-.198 9.903 9.903 0 0 1-.2-.175l-.178-.175a9.44 9.44 0 0 1-.5-.518 9.763 9.763 0 0 1-.257-.281 76.531 76.531 0 0 1-.257-.316 4.336 4.336 0 0 1-.096-.129 12.557 12.557 0 0 0-.196-.266 2.59 2.59 0 0 1-.074-.101 3.834 3.834 0 0 0-.083-.116 3.236 3.236 0 0 1-.09-.128 11.38 11.38 0 0 0-.101-.149 4.57 4.57 0 0 1-.096-.143 11.864 11.864 0 0 0-.106-.162 2.536 2.536 0 0 1-.096-.153 18.338 18.338 0 0 0-.262-.434 48.83 48.83 0 0 1-.36-.634 4.78 4.78 0 0 1-.258-.534 5.279 5.279 0 0 1-.09-.212 29.575 29.575 0 0 1-.232-.577 16.068 16.068 0 0 1-.525-1.668 17.887 17.887 0 0 1-.283-1.234 8.544 8.544 0 0 1-.096-.518c-.01-.082-.032-.334-.065-.755a31.975 31.975 0 0 1-.066-.952l-.035-.681c-.014-.24-.032-.634-.056-1.18A31.091 31.091 0 0 1 1 3.664v-.34a.682.682 0 0 1 .212-.059 56.357 56.357 0 0 0 1.185-.192l.752-.129c.15-.026.351-.067.6-.123.249-.056.464-.109.645-.158.182-.05.338-.095.47-.138.13-.043.233-.076.307-.099a7.945 7.945 0 0 0 .615-.217c.202-.076.391-.152.568-.23a4.14 4.14 0 0 1 .282-.118c.012-.002.097-.039.255-.11a105.68 105.68 0 0 0 .807-.376c.124-.06.28-.136.464-.232L8.44 1h.132z" stroke="#FFF" stroke-width="2"/></g></svg>