<?xml version="1.0" encoding="utf-8"?>
<!-- Generator: Adobe Illustrator 21.0.0, SVG Export Plug-In . SVG Version: 6.00 Build 0)  -->
<svg version="1.1" xmlns="http://www.w3.org/2000/svg" xmlns:xlink="http://www.w3.org/1999/xlink" x="0px" y="0px"
	 viewBox="0 0 400 400" enable-background="new 0 0 400 400" xml:space="preserve">
<g id="Layer_1">
	<g>
		<g>
			<path fill="#E61B72" stroke="#E61B72" stroke-width="3" stroke-miterlimit="10" d="M200,398.1C90.8,398.1,1.9,309.2,1.9,200
				S90.8,1.9,200,1.9S398.1,90.8,398.1,200S309.2,398.1,200,398.1z M200,3C91.4,3,3,91.4,3,200s88.4,197,197,197s197-88.4,197-197
				S308.6,3,200,3z"/>
		</g>
	</g>
	<g>
		<path fill="#E61B72" d="M248,232.9l-47.9,15l-1.2,0.4l1,58.3l-48.1-73.6l48.2-14.3l-0.2-59.3l0.3,0.4L248,232.9z M275.1,229.6
			c0-80.4-71.9-136.2-75-136.2v30.3c-4.3,0-75.2,41.7-75.2,105.5c0,48.7,42.9,77.3,75.2,77.3C241.8,306.6,275.1,270.7,275.1,229.6"
			/>
	</g>
</g>
<g id="White" display="none">
	<g display="inline">
		<g>
			<path fill="#FFFFFF" stroke="#FFFFFF" stroke-width="3" stroke-miterlimit="10" d="M200,398.1C90.8,398.1,1.9,309.2,1.9,200
				S90.8,1.9,200,1.9S398.1,90.8,398.1,200S309.2,398.1,200,398.1z M200,3C91.4,3,3,91.4,3,200s88.4,197,197,197s197-88.4,197-197
				S308.6,3,200,3z"/>
		</g>
	</g>
</g>
</svg>
