<?xml version="1.0" encoding="utf-8"?>
<!-- Generator: Adobe Illustrator 21.0.0, SVG Export Plug-In . SVG Version: 6.00 Build 0)  -->
<svg version="1.1"
	 id="Layer_1" xmlns:cc="http://creativecommons.org/ns#" xmlns:dc="http://purl.org/dc/elements/1.1/" xmlns:rdf="http://www.w3.org/1999/02/22-rdf-syntax-ns#"
	 xmlns="http://www.w3.org/2000/svg" xmlns:xlink="http://www.w3.org/1999/xlink" x="0px" y="0px" viewBox="0 0 300 244.2"
	 style="enable-background:new 0 0 300 244.2;" xml:space="preserve">
<style type="text/css">
	.st0{fill:#1DA1F2;}
</style>
<g transform="translate(-539.18 -568.86)">
	<path class="st0" d="M648.1,780.9c83.5,0,129.2-69.2,129.2-129.2c0-2,0-3.9-0.1-5.9c8.9-6.4,16.6-14.4,22.6-23.5
		c-8.1,3.6-16.9,6-26.1,7.1c9.4-5.6,16.6-14.5,20-25.1c-8.8,5.2-18.5,9-28.8,11c-8.3-8.8-20.1-14.3-33.1-14.3
		c-25.1,0-45.4,20.3-45.4,45.4c0,3.6,0.4,7,1.2,10.4c-37.7-1.9-71.2-20-93.6-47.4c-3.9,6.7-6.1,14.5-6.1,22.8
		c0,15.7,8,29.7,20.2,37.8c-7.4-0.2-14.4-2.3-20.6-5.7c0,0.2,0,0.4,0,0.6c0,22,15.6,40.3,36.4,44.5c-3.8,1-7.8,1.6-12,1.6
		c-2.9,0-5.8-0.3-8.5-0.8c5.8,18,22.5,31.2,42.4,31.5c-15.5,12.2-35.1,19.4-56.4,19.4c-3.7,0-7.3-0.2-10.8-0.6
		C598.6,773.3,622.5,780.9,648.1,780.9"/>
</g>
</svg>
