<?xml version="1.0" encoding="UTF-8"?>
<svg width="120px" height="125px" viewBox="0 0 120 125" version="1.1" xmlns="http://www.w3.org/2000/svg" xmlns:xlink="http://www.w3.org/1999/xlink">
    <!-- Generator: Sketch 42 (36781) - http://www.bohemiancoding.com/sketch -->
    <title>icon - umberella</title>
    <desc>Created with Sketch.</desc>
    <defs></defs>
    <g id="Icons" stroke="none" stroke-width="1" fill="none" fill-rule="evenodd">
        <g id="icon---umberella" fill="#005F89">
            <g id="Group-5">
                <text id="INSURANCE" font-family="OpenSans-Bold, Open Sans" font-size="13" font-weight="bold" letter-spacing="1">
                    <tspan x="17.7282715" y="125">INSURANCE</tspan>
                </text>
                <path d="M60.0237079,0 C32.380275,0 10,22.380275 10,50.0237079 L10.0474158,50.0237079 C10.2370792,45.0924609 17.6339497,41.1095306 26.7377904,41.1095306 C35.6519678,41.1095306 42.859175,44.9027975 43.3807492,49.6917971 C43.8549075,45.3295401 49.8767188,41.8207681 57.6529161,41.2043623 L57.6529161,80.7965861 C57.6529161,85.1593172 59.0753912,88.8572783 61.730678,91.4651494 C64.1014699,93.7885254 67.3257468,95.116643 70.7396871,95.116643 C77.2356567,95.116643 83.826458,90.1849218 83.826458,80.7965861 C83.826458,79.9435752 83.1152205,79.2323376 82.2617354,79.2323376 C81.4082504,79.2323376 80.6970128,79.9435752 80.6970128,80.7965861 C80.6970128,88.5253675 75.5286866,92.0346136 70.7396871,92.0346136 C65.9506875,92.0346136 60.7823613,88.5253675 60.7823613,80.7965861 L60.7823613,41.1095306 C69.5542911,41.2991939 76.571835,45.1872926 76.7614983,49.9762921 L76.85633,49.9762921 C77.0459934,45.045045 84.4428639,41.0621147 93.5467046,41.0621147 C101.891892,41.0621147 108.719772,44.3812233 110,48.6960645 C109.288762,21.7164533 87.1929825,0 60.0237079,0" id="Fill-5"></path>
            </g>
        </g>
    </g>
</svg>