<svg width="29" height="29" viewBox="0 0 29 29" xmlns="http://www.w3.org/2000/svg"><title>946E9149-B933-40F8-AEDF-F8ECA16CFDCF</title><path d="M14.5 24.94a10.44 10.44 0 0 1-8.7-4.669c.043-2.886 5.8-4.466 8.7-4.466 2.886 0 8.657 1.58 8.7 4.466a10.44 10.44 0 0 1-8.7 4.669m0-20.59a4.344 4.344 0 0 1 4.35 4.35 4.344 4.344 0 0 1-4.35 4.35 4.344 4.344 0 0 1-4.35-4.35 4.344 4.344 0 0 1 4.35-4.35m0-4.35C6.496 0 0 6.496 0 14.5S6.496 29 14.5 29 29 22.504 29 14.5 22.504 0 14.5 0" fill="#FFF" fill-rule="evenodd"/></svg>