<svg width="24" height="24" version="1.1" viewBox="0 0 24 24" xmlns="http://www.w3.org/2000/svg"><path d="m12 0c-6.624 0-12 5.376-12 12s5.376 12 12 12 12-5.376 12-12-5.376-12-12-12z" fill="#fff"/><path d="m12 20.64c-3 0-5.652-1.536-7.2-3.864 0.036-2.388 4.8-3.696 7.2-3.696 2.388 0 7.1652 1.308 7.2 3.696-1.548 2.328-4.2 3.864-7.2 3.864z" fill="#4a556b"/><path d="m12 3.6c1.992 0 3.6 1.608 3.6 3.6s-1.608 3.6-3.6 3.6-3.6-1.608-3.6-3.6 1.608-3.6 3.6-3.6z" fill="#4a556b"/><path d="m12 0a12 12 0 0 0 -12 12 12 12 0 0 0 12 12 12 12 0 0 0 12 -12 12 12 0 0 0 -12 -12zm0 0.5a11.5 11.5 0 0 1 11.5 11.5 11.5 11.5 0 0 1 -11.5 11.5 11.5 11.5 0 0 1 -11.5 -11.5 11.5 11.5 0 0 1 11.5 -11.5z" fill="#eee"/></svg>
